<svg width="32" height="32" viewBox="0 0 32 32" fill="none" xmlns="http://www.w3.org/2000/svg">
<path d="M6.66667 15.3332C6.29848 15.3332 6 15.6317 6 15.9999C6 16.3681 6.29848 16.6666 6.66667 16.6666L6.66667 15.3332ZM21.3421 19.0483C21.0818 19.3087 21.0818 19.7308 21.3421 19.9911C21.6025 20.2515 22.0246 20.2515 22.2849 19.9911L21.3421 19.0483ZM25.3334 15.9999L25.8048 16.4713L26.2762 15.9999L25.8048 15.5285L25.3334 15.9999ZM22.2849 12.0087C22.0246 11.7483 21.6025 11.7483 21.3421 12.0087C21.0818 12.269 21.0818 12.6911 21.3421 12.9515L22.2849 12.0087ZM22.2849 19.9911L25.8048 16.4713L24.862 15.5285L21.3421 19.0483L22.2849 19.9911ZM25.8048 15.5285L22.2849 12.0087L21.3421 12.9515L24.862 16.4713L25.8048 15.5285ZM25.3334 15.3332L6.66667 15.3332L6.66667 16.6666L25.3334 16.6666L25.3334 15.3332Z" fill="#1B0F0F"/>
</svg>
