<svg width="24" height="24" viewBox="0 0 24 24" fill="none" xmlns="http://www.w3.org/2000/svg">
<path d="M6.33882 11.6609C6.1517 11.4738 5.8483 11.4738 5.66118 11.6609C5.47405 11.8481 5.47405 12.1515 5.66118 12.3386L6.33882 11.6609ZM10 15.9998L9.66118 16.3386L10 16.6774L10.3388 16.3386L10 15.9998ZM18.3388 8.33858C18.5259 8.15145 18.5259 7.84806 18.3388 7.66093C18.1517 7.47381 17.8483 7.47381 17.6612 7.66093L18.3388 8.33858ZM5.66118 12.3386L9.66118 16.3386L10.3388 15.6609L6.33882 11.6609L5.66118 12.3386ZM10.3388 16.3386L18.3388 8.33858L17.6612 7.66093L9.66118 15.6609L10.3388 16.3386Z" fill="#625454"/>
</svg>
