<?xml version="1.0" encoding="utf-8"?>
<!-- Generator: Adobe Illustrator 24.2.1, SVG Export Plug-In . SVG Version: 6.00 Build 0)  -->
<svg version="1.1" id="Ebene_1" xmlns="http://www.w3.org/2000/svg" xmlns:xlink="http://www.w3.org/1999/xlink" x="0px" y="0px"
	 viewBox="0 0 24 24" style="enable-background:new 0 0 24 24;" xml:space="preserve">
<style type="text/css">
	.st0{fill:#1B0F0F;}
</style>
<path class="st0" d="M4.9,11.5c-0.3,0-0.5,0.2-0.5,0.5c0,0.3,0.2,0.5,0.5,0.5V11.5z M15.9,14.3c-0.2,0.2-0.2,0.5,0,0.7
	s0.5,0.2,0.7,0L15.9,14.3z M18.9,12l0.4,0.4l0.4-0.4l-0.4-0.4L18.9,12z M16.6,9c-0.2-0.2-0.5-0.2-0.7,0c-0.2,0.2-0.2,0.5,0,0.7
	L16.6,9z M16.6,15l2.6-2.6l-0.7-0.7l-2.6,2.6L16.6,15z M19.3,11.6L16.6,9l-0.7,0.7l2.6,2.6L19.3,11.6z M18.9,11.5h-14v1h14V11.5z"/>
</svg>
