<?xml version="1.0" encoding="utf-8"?>
<!-- Generator: Adobe Illustrator 24.2.1, SVG Export Plug-In . SVG Version: 6.00 Build 0)  -->
<svg version="1.1" id="Ebene_1" xmlns="http://www.w3.org/2000/svg" xmlns:xlink="http://www.w3.org/1999/xlink" x="0px" y="0px"
	 viewBox="0 0 8.2 14" style="enable-background:new 0 0 8.2 14;" xml:space="preserve">
<style type="text/css">
	.st0{fill:#1B0F0F;}
</style>
<path class="st0" d="M7.4,13.9c0.2,0.2,0.5,0.2,0.7,0c0.2-0.2,0.2-0.5,0-0.7L7.4,13.9z M0.7,7L0.4,6.6L0,7l0.4,0.4L0.7,7z M8.1,0.9
	c0.2-0.2,0.2-0.5,0-0.7C7.9,0,7.6-0.1,7.4,0.1L8.1,0.9z M8.1,13.1l-7-6.5L0.4,7.4l7,6.5L8.1,13.1z M1.1,7.4l7-6.5L7.4,0.1l-7,6.5
	L1.1,7.4z"/>
</svg>
