<svg width="32" height="32" viewBox="0 0 32 32" fill="none" xmlns="http://www.w3.org/2000/svg">
<path d="M6.41797 25.4143H6.027V25.8053H6.41797V25.4143ZM12.0052 25.3047L12.2766 25.5861L12.0052 25.3047ZM25.0976 10.9908L25.3701 10.7103L25.0976 10.9908ZM25.0947 12.6761L25.3662 12.9575L25.0947 12.6761ZM19.6757 7.31135L19.4032 7.03092L19.6757 7.31135ZM21.3103 7.31135L21.0378 7.59177L21.3103 7.31135ZM6.53651 20.0761L6.80894 20.3565L6.53651 20.0761ZM6.80894 20.3565L19.9481 7.59177L19.4032 7.03092L6.26407 19.7956L6.80894 20.3565ZM21.0378 7.59177L24.8252 11.2712L25.3701 10.7103L21.5827 7.03092L21.0378 7.59177ZM24.8232 12.3948L11.7337 25.0234L12.2766 25.5861L25.3662 12.9575L24.8232 12.3948ZM11.7337 25.0234H6.41797V25.8053H11.7337V25.0234ZM6.80894 25.4143V20.3565H6.027V25.4143H6.80894ZM15.5289 11.3557L21.0025 16.6734L21.5474 16.1125L16.0737 10.7949L15.5289 11.3557ZM11.7337 25.0234L11.7337 25.0234V25.8053C11.9363 25.8053 12.1309 25.7267 12.2766 25.5861L11.7337 25.0234ZM24.8252 11.2712C25.142 11.579 25.1412 12.088 24.8232 12.3948L25.3662 12.9575C26.002 12.344 26.0038 11.326 25.3701 10.7103L24.8252 11.2712ZM19.9481 7.59177C20.2515 7.29698 20.7344 7.29698 21.0378 7.59177L21.5827 7.03092C20.9758 6.44134 20.0101 6.44134 19.4032 7.03092L19.9481 7.59177ZM6.26407 19.7956C6.11251 19.9429 6.027 20.1452 6.027 20.3565H6.80894L6.80894 20.3565L6.26407 19.7956Z" fill="#1B0F0F"/>
<path d="M15.0195 25.0198C15.0195 24.8703 15.1407 24.7491 15.2902 24.7491H25.6961C25.8456 24.7491 25.9668 24.8703 25.9668 25.0198V26.0659H15.0195V25.0198Z" fill="#1B0F0F"/>
</svg>
