<?xml version="1.0" encoding="utf-8"?>
<!-- Generator: Adobe Illustrator 24.2.1, SVG Export Plug-In . SVG Version: 6.00 Build 0)  -->
<svg version="1.1" id="Ebene_1" xmlns="http://www.w3.org/2000/svg" xmlns:xlink="http://www.w3.org/1999/xlink" x="0px" y="0px"
	 viewBox="0 0 16 16" style="enable-background:new 0 0 16 16;" xml:space="preserve">
<style type="text/css">
	.st0{fill-rule:evenodd;clip-rule:evenodd;fill:#6C5F5F;}
</style>
<path class="st0" d="M7.3,0C7,0,6.4,0.1,6.1,0.2C3.2,0.9,0.9,3.2,0.2,6C0.1,6.6,0,7.1,0,7.7C0,9.4,0.4,11,1.3,12.4l0.2,0.3L1,14.2
	c-0.3,0.8-0.5,1.5-0.5,1.5c0,0,0.7-0.2,1.5-0.5l1.5-0.5l0.3,0.2c1.1,0.7,2.1,1,3.4,1.1c0.5,0.1,1.5,0,2-0.1c1.7-0.3,3.2-1,4.4-2.3
	c1-1,1.8-2.3,2.1-3.7C16,9.2,16,8.9,16,8s0-1.2-0.2-2c-0.4-1.4-1.1-2.7-2.1-3.7c-1-1-2.3-1.8-3.7-2.1C9.3,0.1,8.9,0,8.1,0
	C7.8,0,7.4,0,7.3,0z M5.5,3.7c0,0,0.1,0.1,0.1,0.1C5.7,4,6.5,5.9,6.6,6c0,0.2-0.1,0.4-0.5,0.8C5.7,7.3,5.7,7.3,6,7.8
	c0.7,1,1.5,1.7,2.5,2.2C9,10.3,9,10.3,9.2,10.3h0.2l0.2-0.2C9.7,10,9.8,9.8,9.9,9.7c0.4-0.6,0.5-0.6,1-0.5c0.4,0.2,1.8,0.8,1.8,0.9
	l0.1,0.1l0,0.3c0,0.7-0.2,1.1-0.7,1.4c-0.4,0.3-1,0.5-1.5,0.5c-0.8,0-2.5-0.6-3.5-1.3c-0.7-0.4-1.4-1.1-2-1.8
	c-0.8-1-1.4-1.9-1.6-2.7C3.2,5.9,3.4,5,3.8,4.4c0.2-0.2,0.5-0.6,0.6-0.6C4.7,3.6,5.3,3.6,5.5,3.7z"/>
</svg>
