<?xml version="1.0" encoding="utf-8"?>
<!-- Generator: Adobe Illustrator 24.2.1, SVG Export Plug-In . SVG Version: 6.00 Build 0)  -->
<svg version="1.1" id="Ebene_1" xmlns="http://www.w3.org/2000/svg" xmlns:xlink="http://www.w3.org/1999/xlink" x="0px" y="0px"
	 viewBox="0 0 16 16" style="enable-background:new 0 0 16 16;" xml:space="preserve">
<style type="text/css">
	.st0{fill:none;stroke:#6C5F5F;stroke-width:0.9375;stroke-linecap:round;stroke-linejoin:round;}
</style>
<path class="st0" d="M5.3,6.9l5.5-2.8 M5.3,9.1l5.5,2.8 M5.5,8c0,1.4-1.1,2.5-2.5,2.5S0.5,9.4,0.5,8c0-1.4,1.1-2.5,2.5-2.5
	S5.5,6.6,5.5,8z M15.5,3c0,1.4-1.1,2.5-2.5,2.5c-1.4,0-2.5-1.1-2.5-2.5s1.1-2.5,2.5-2.5C14.4,0.5,15.5,1.6,15.5,3z M15.5,13
	c0,1.4-1.1,2.5-2.5,2.5c-1.4,0-2.5-1.1-2.5-2.5c0-1.4,1.1-2.5,2.5-2.5C14.4,10.5,15.5,11.6,15.5,13z"/>
</svg>
