<?xml version="1.0" encoding="utf-8"?>
<!-- Generator: Adobe Illustrator 24.2.1, SVG Export Plug-In . SVG Version: 6.00 Build 0)  -->
<svg version="1.1" id="Ebene_1" xmlns="http://www.w3.org/2000/svg" xmlns:xlink="http://www.w3.org/1999/xlink" x="0px" y="0px"
	 viewBox="0 0 16 15.9" style="enable-background:new 0 0 16 15.9;" xml:space="preserve">
<style type="text/css">
	.st0{fill-rule:evenodd;clip-rule:evenodd;fill:#6C5F5F;}
</style>
<path class="st0" d="M8,0c4.4,0,8,3.6,8,8l0,0c0,4-2.9,7.3-6.7,7.9v-5.6h1.9l0,0L11.5,8h0v0H9.3V6.5c0-0.6,0.3-1.2,1.3-1.2h1v-2
	c0,0-0.2,0-0.6-0.1c-0.1,0-0.2,0-0.4,0c-0.3,0-0.6,0-0.9,0c-1.8,0-3,1.1-3,3.1V8h-2v2.3h0l0,0h2v5.6C2.9,15.3,0,12,0,8
	C0,3.6,3.6,0,8,0z"/>
</svg>
