<?xml version="1.0" encoding="utf-8"?>
<!-- Generator: Adobe Illustrator 24.2.1, SVG Export Plug-In . SVG Version: 6.00 Build 0)  -->
<svg version="1.1" id="Ebene_1" xmlns="http://www.w3.org/2000/svg" xmlns:xlink="http://www.w3.org/1999/xlink" x="0px" y="0px"
	 viewBox="0 0 16 16" style="enable-background:new 0 0 16 16;" xml:space="preserve">
<style type="text/css">
	.st0{fill:#6C5F5F;}
</style>
<path class="st0" d="M7.4,13.8c0.2-0.2,0.2-0.5,0.1-0.6C7.3,13,7,13,6.8,13.1L7.4,13.8z M10,6.5c0.2,0.2,0.5,0.2,0.6,0
	c0.2-0.2,0.2-0.5,0-0.6L10,6.5z M7.1,4.8l0.3,0.3L7.1,4.8z M9,4.8L8.7,5.1L9,4.8z M1.2,12.2l-0.3,0.3L1.2,12.2z M1.3,10.2L1,9.9
	L1.3,10.2z M5.4,14.9l-0.3-0.4L5.4,14.9z M6.8,13.1l-1.7,1.4l0.6,0.7l1.7-1.4L6.8,13.1z M3.8,14.5c-1-1.2-1.8-2-2.3-2.5l-0.7,0.6
	c0.5,0.6,1.2,1.4,2.3,2.5L3.8,14.5z M1.6,10.5l5.8-5.4L6.8,4.4L1,9.9L1.6,10.5z M8.7,5.1L10,6.5l0.6-0.6L9.3,4.5L8.7,5.1z M7.4,5.1
	c0.4-0.3,0.9-0.3,1.3,0l0.6-0.6c-0.7-0.7-1.8-0.7-2.6,0L7.4,5.1z M1.6,11.9c-0.4-0.4-0.3-1,0-1.4L1,9.9c-0.7,0.7-0.8,1.9-0.1,2.7
	L1.6,11.9z M5.1,14.6c-0.4,0.3-0.9,0.3-1.3-0.1l-0.7,0.6c0.7,0.7,1.8,0.8,2.5,0.2L5.1,14.6z"/>
<path class="st0" d="M8.7,2.2c-0.2,0.2-0.2,0.5,0,0.6c0.2,0.2,0.5,0.2,0.6,0L8.7,2.2z M7,9C6.8,8.8,6.5,8.9,6.3,9
	c-0.2,0.2-0.2,0.5,0,0.6L7,9z M8,10.7l0.3-0.3L8,10.7z M9.3,2.9L11,1.5l-0.6-0.7L8.7,2.2L9.3,2.9z M12.3,1.5c1.1,1.2,1.8,2,2.3,2.5
	l0.7-0.6C14.8,2.9,14,2.1,13,0.9L12.3,1.5z M14.6,5.4l-5,4.9l0.6,0.7l5-4.9L14.6,5.4z M8.3,10.3L7,9L6.4,9.7L7.7,11L8.3,10.3z
	 M9.6,10.3c-0.4,0.4-0.9,0.4-1.3,0L7.7,11c0.7,0.7,1.9,0.7,2.6,0L9.6,10.3z M14.6,4.1c0.4,0.4,0.3,1,0,1.4l0.6,0.7
	c0.7-0.7,0.7-1.9,0-2.6L14.6,4.1z M11,1.5c0.4-0.3,0.9-0.3,1.3,0.1L13,0.9c-0.7-0.7-1.8-0.8-2.5-0.2L11,1.5z"/>
</svg>
