<svg width="16" height="16" viewBox="0 0 16 16" fill="none" xmlns="http://www.w3.org/2000/svg">
<path d="M7.77035 6C8.04649 6 8.27035 5.77614 8.27035 5.5C8.27035 5.22386 8.04649 5 7.77035 5C7.4942 5 7.27035 5.22386 7.27035 5.5C7.27035 5.77614 7.4942 6 7.77035 6Z" fill="#43424A"/>
<path d="M7.40365 6.66667C7.21955 6.66667 7.07031 6.81591 7.07031 7C7.07031 7.18409 7.21955 7.33333 7.40365 7.33333H7.73698V11C7.73698 11.1841 7.88622 11.3333 8.07031 11.3333H8.73698C8.92107 11.3333 9.07031 11.1841 9.07031 11C9.07031 10.8159 8.92107 10.6667 8.73698 10.6667H8.40365V7C8.40365 6.81591 8.25441 6.66667 8.07031 6.66667H7.40365Z" fill="#43424A"/>
<circle cx="8.0026" cy="8.00065" r="6.33333" stroke="#43424A" stroke-width="0.666667"/>
</svg>
