<?xml version="1.0" encoding="utf-8"?>
<!-- Generator: Adobe Illustrator 24.2.1, SVG Export Plug-In . SVG Version: 6.00 Build 0)  -->
<svg version="1.1" id="Ebene_1" xmlns="http://www.w3.org/2000/svg" xmlns:xlink="http://www.w3.org/1999/xlink" x="0px" y="0px"
	 viewBox="0 0 230 32" style="enable-background:new 0 0 230 32;" xml:space="preserve">
<style type="text/css">
	.st0{fill-rule:evenodd;clip-rule:evenodd;}
</style>
<path class="st0" d="M56,0.2c-4.8,0.9-7.7,4-7.7,8.1c0,2.3,0.7,3.8,2.3,5.4c1.5,1.5,3.1,2.4,7.2,4c6.3,2.5,7.9,4,7.9,7.1
	c0,2.4-1.3,4.2-3.9,5.4c-2.4,1.1-6.1,0.8-8.5-0.5c-2.3-1.3-4.5-3.8-6-6.6c-0.4-0.7-0.7-1.2-0.8-1.2c-0.1,0-0.5,1.3-0.9,2.9L45,27.6
	l0.5,0.4c1.2,1,4,2.5,5.8,3.1c1.7,0.6,2.2,0.7,4.9,0.8c2.4,0.1,3.3,0,4.4-0.3c3.2-0.8,5.6-2.6,6.8-5.1c0.7-1.3,0.7-1.6,0.7-3.6
	c0-1.9-0.1-2.3-0.6-3.4c-1.2-2.4-3.5-3.9-9.2-6c-5-1.8-6.7-2.8-7.6-4.6c-0.6-1.2-0.6-3,0-4.2c0.5-1.1,1.9-2.4,3.3-3
	c1.2-0.5,4.2-0.8,5.6-0.4c2.3,0.6,4.1,2.5,6,6.2l1.1,2.2l0.8-2.7l0.8-2.7l-0.7-0.6c-1.1-1-3.6-2.4-5.5-3C60,0.1,57.8-0.2,56,0.2z
	 M186.6,0.2c-2.8,0.6-5.1,2.4-6.3,4.6c-0.6,1.1-0.6,1.5-0.6,3.3c0,1.7,0.1,2.3,0.5,3.1c0.7,1.6,1.5,2.5,3.2,3.6
	c1.5,1,2.1,1.3,7.2,3.4c3,1.3,4.8,2.4,5.6,3.7c3,4.6-2.2,10-8.5,8.8c-3.6-0.7-6.4-3-9-7.5l-0.9-1.6l-0.2,0.8
	c-0.1,0.5-0.4,1.7-0.7,2.7c-0.3,1-0.5,2-0.6,2.2c-0.1,0.3,0.4,0.7,1.8,1.6c3.6,2.4,6.7,3.2,10.9,3c3.7-0.2,5.9-1.1,8-3.2
	c2.6-2.6,3.3-6.1,1.7-9.3c-1.2-2.4-3.3-3.8-9.3-6c-4.2-1.5-5.7-2.3-6.7-3.5c-2.5-2.8-1.1-6.8,2.8-8.3c0.9-0.3,1.7-0.5,3.1-0.5
	c2.1,0,3.2,0.4,4.8,1.6c1,0.8,3.2,4,3.9,5.7c0.3,0.7,0.5,1.2,0.6,1.1c0,0,0.4-1.3,0.9-2.8l0.8-2.7L199,3.7c-1.2-1-4-2.5-5.6-3
	C191.5,0,188.6-0.2,186.6,0.2z M0.5,1.1c1.1,1.4,2,3.5,9.4,22.8l3,7.9l2.8,0l2.8,0l-0.7-0.6c-0.4-0.3-0.9-1.1-1.3-1.8
	c-0.5-1-0.6-1.5-0.6-2.8c0-1.4,0.3-2.4,3.8-12.2C21.9,8.6,23.7,3.4,24,3c0.2-0.4,0.8-1.2,1.4-1.7l1-0.9H23h-3.3l0.8,0.9
	c0.9,1,1.1,1.9,1,3.6c-0.1,0.9-6.7,20.3-7.1,20.8c-0.1,0.1-1.8-4.1-3.8-9.3C7.3,7.7,6.9,6.6,6.9,5.4c0-1.6,0.6-3.1,1.7-4.3l0.8-0.8
	H4.7H0L0.5,1.1z M32.7,1.1c0.4,0.4,0.8,1.1,0.9,1.6c0.3,1.1,0.3,25.6,0,26.8c-0.1,0.5-0.5,1.2-0.9,1.6L32,31.8h3.5h3.5l-0.7-0.7
	c-0.4-0.4-0.8-1.1-0.9-1.5c-0.2-0.8-0.3-25.7-0.1-26.8c0.1-0.4,0.5-1.1,0.9-1.5L39,0.4h-3.5H32L32.7,1.1z M75.4,1.1
	c0.4,0.4,0.8,1,0.9,1.3c0.1,0.4,0.2,3.8,0.2,9.8c0,10.1,0.1,11.4,1.3,13.8c1.7,3.7,6,6,10.8,6c5.2,0,8.9-2.7,10.5-7.6
	c0.3-1,0.4-2.4,0.5-10.7c0.1-9.1,0.1-9.6,0.6-10.5c0.3-0.6,0.8-1.4,1.3-1.9l0.8-0.9h-3.5h-3.5l0.9,1C98,3.1,98,3.3,98,14.1
	c0,8.6,0,9.6-0.4,10.7c-1.2,3.5-3.9,5.5-8.1,5.8c-4.8,0.4-8-1.9-9.1-6.5c-0.3-1.1-0.3-3.3-0.3-11.5c0-9.9,0-10.2,0.4-10.9
	c0.2-0.4,0.7-0.9,0.9-1.1c0.4-0.3,0.1-0.3-3.2-0.3h-3.7L75.4,1.1z M114,1.2c1.1,1.3,1.5,2.1,1.6,3.8l0.1,1.5l-3.8,10.9
	c-2.1,6-4,11.2-4.2,11.7c-0.2,0.4-0.8,1.2-1.4,1.7l-1,0.9h3.3h3.3l-0.7-0.7c-0.9-0.9-1.3-2.3-1.1-3.6c0.1-0.5,0.6-2.2,1.1-3.7
	l0.9-2.7l5.4-0.1l5.4-0.1l0.8,2.1c1.4,3.5,1.1,5.9-0.9,8l-0.7,0.7h4.6h4.6l-0.5-0.7c-1-1.5-2.5-5.1-7-16.8c-2.6-6.7-4.9-12.6-5-13.1
	l-0.3-0.8H116h-2.7L114,1.2z M142,0.8c-1.2,0.6-2.1,1.8-2.1,3.2c0,1.2,0.8,3,2.6,6.1l1.1,1.8l-1.3,3.6c-4.1,11.7-4.8,13.4-6.1,15.3
	l-0.6,1h10.8h10.8l0.4-2.2c0.2-1.2,0.4-2.5,0.5-2.9c0.1-0.6,0.1-0.6-1.2,0.5c-1.5,1.3-3.6,2.4-5.5,2.9c-1.9,0.5-2.1,0.5-1.3-0.4
	c1.6-1.6,2-4.1,1.2-6.6c-0.5-1.6-2.2-4.8-4.4-8.5l-1.8-2.9l1.4-3.9c1.7-4.7,2-5.4,3.3-6.6l1-0.9l-3.9,0C143.4,0.4,142.8,0.4,142,0.8
	z M163.9,1.1c0.4,0.4,0.8,0.9,0.9,1.2c0.2,0.3,0.2,4.4,0.2,13.9c0,13.2,0,13.4-0.5,14.1c-0.2,0.4-0.7,0.9-0.9,1.1
	c-0.4,0.4-0.3,0.4,3.2,0.4l3.7,0l-0.5-0.4c-1.3-1-1.2-0.7-1.2-15.3c0-13.2,0-13.4,0.5-14.2c0.2-0.4,0.7-0.9,0.9-1.1
	c0.4-0.4,0.3-0.4-3.2-0.4l-3.7,0L163.9,1.1z M207.3,0.5c-0.2,0.2-0.2,5.1,0,5.1c0.1,0,0.6-0.4,1.1-0.8c1.8-1.5,6.2-3.5,7.9-3.5h0.6
	v14.2c0,9.5-0.1,14.4-0.2,14.8c-0.1,0.3-0.4,0.8-0.7,1.1l-0.5,0.5h3.1h3.1l-0.5-0.5c-0.3-0.3-0.6-0.8-0.7-1.1
	c-0.2-0.4-0.2-5.3-0.2-14.8V1.2h0.6c1.7,0,6.1,1.9,8,3.5l1.1,0.9l0.1-2.3c0-1.3,0-2.5,0-2.6c-0.1-0.2-2.3-0.3-11.3-0.3
	C212.5,0.4,207.3,0.4,207.3,0.5z M145.4,1.9c0.7,0.6,0.7,0.7,0.6,2c-0.1,0.7-0.5,2.5-0.9,3.8c-0.9,2.8-0.8,2.8-2.4-0.1
	c-1.5-2.7-1.8-3.6-1.4-4.7C141.8,1.2,144,0.6,145.4,1.9z M119.9,12.8c1.3,3.3,2.4,6.2,2.4,6.3c0.1,0.2-0.9,0.3-4.7,0.3
	c-2.6,0-4.8-0.1-4.8-0.2c0-0.4,4.5-12.8,4.6-12.7C117.5,6.7,118.6,9.5,119.9,12.8z M146.5,16.8c4,6.9,4.7,9.6,3.2,12.1
	c-0.9,1.4-2.3,2.2-4.1,2.2c-2.1,0-3.5-0.9-4.4-2.8c-0.9-1.9-0.5-4.1,1.8-10.6c0.7-1.9,1.3-3.6,1.3-3.7c0.1-0.1,0.1-0.3,0.2-0.3
	S145.5,15,146.5,16.8z"/>
</svg>
