<svg width="18" height="18" viewBox="0 0 18 18" fill="none" xmlns="http://www.w3.org/2000/svg">
<path d="M12.7328 9.00003V10.6001C12.7328 11.7783 13.688 12.7335 14.8662 12.7335C16.0445 12.7335 16.9997 11.7783 16.9997 10.6001V9.00003C16.9995 5.29006 14.4486 2.06703 10.8378 1.21474C7.22707 0.362442 3.50414 2.10456 1.84499 5.42285C0.18584 8.74115 1.02591 12.7648 3.87419 15.142C6.72247 17.5192 10.8315 17.6261 13.7995 15.4003M12.7317 8.9998C12.7317 11.0617 11.0602 12.7333 8.99823 12.7333C6.93629 12.7333 5.26475 11.0617 5.26475 8.9998C5.26475 6.93785 6.93629 5.26631 8.99823 5.26631C11.0602 5.26631 12.7317 6.93785 12.7317 8.9998Z" stroke="#443535" stroke-linecap="round" stroke-linejoin="round"/>
</svg>
