<svg width="24" height="24" viewBox="0 0 24 24" fill="none" xmlns="http://www.w3.org/2000/svg">
<path d="M4 7.5C4 7.22386 4.22386 7 4.5 7H19.5C19.7761 7 20 7.22386 20 7.5C20 7.77614 19.7761 8 19.5 8H4.5C4.22386 8 4 7.77614 4 7.5Z" fill="black"/>
<path d="M7 12C7 11.7238 7.22386 11.5 7.5 11.5H19.5C19.7761 11.5 20 11.7238 20 12C20 12.2761 19.7761 12.5 19.5 12.5H7.5C7.22386 12.5 7 12.2761 7 12Z" fill="black"/>
<path d="M10 16.5C10 16.2238 10.2239 16 10.5 16H19.5C19.7761 16 20 16.2238 20 16.5C20 16.7761 19.7761 17 19.5 17H10.5C10.2239 17 10 16.7761 10 16.5Z" fill="black"/>
</svg>
