<svg width="664" height="33" viewBox="0 0 664 33" fill="none" xmlns="http://www.w3.org/2000/svg">
<g clip-path="url(#clip0_743_4251)">
<rect width="74.9786" height="15.09" fill="white"/>
<path d="M8.60886 5.3304L8.60886 9.06519H8.15616L8.15616 5.3304H8.60886ZM9.71807 9.06519L9.71807 6.23581H10.1142L10.1538 6.86959L10.0802 6.80734C10.1406 6.65644 10.2217 6.53572 10.3236 6.44518C10.4254 6.35087 10.5424 6.28296 10.6744 6.24146C10.8102 6.19997 10.9498 6.17922 11.0931 6.17922C11.2969 6.17922 11.4817 6.21883 11.6477 6.29805C11.8137 6.3735 11.9457 6.49045 12.0438 6.6489C12.1457 6.80734 12.1966 7.00917 12.1966 7.25438V9.06519H11.7439V7.41283C11.7439 7.09971 11.676 6.88279 11.5402 6.76207C11.4081 6.63758 11.244 6.57533 11.0479 6.57533C10.9121 6.57533 10.7763 6.6074 10.6404 6.67153C10.5046 6.73566 10.3915 6.83941 10.3009 6.98276C10.2142 7.12612 10.1708 7.31852 10.1708 7.55996L10.1708 9.06519H9.71807ZM13.448 5.69256C13.3461 5.69256 13.2631 5.66238 13.199 5.60202C13.1386 5.53789 13.1085 5.4549 13.1085 5.35304C13.1085 5.25118 13.1386 5.17007 13.199 5.10971C13.2631 5.04558 13.3461 5.01351 13.448 5.01351C13.5498 5.01351 13.631 5.04558 13.6913 5.10971C13.7554 5.17007 13.7875 5.25118 13.7875 5.35304C13.7875 5.4549 13.7554 5.53789 13.6913 5.60202C13.631 5.66238 13.5498 5.69256 13.448 5.69256ZM13.6743 6.23581V9.06519H13.2216V6.23581H13.6743ZM15.3925 5.43226V8.28428C15.3925 8.42386 15.4321 8.5276 15.5113 8.59551C15.5905 8.66341 15.6924 8.69737 15.8169 8.69737C15.9263 8.69737 16.0206 8.6785 16.0998 8.64078C16.179 8.60305 16.2507 8.55212 16.3149 8.48799L16.4733 8.86713C16.3865 8.94635 16.2828 9.0086 16.1621 9.05387C16.0451 9.09914 15.9093 9.12177 15.7546 9.12177C15.6113 9.12177 15.4774 9.09725 15.3529 9.04821C15.2284 8.99539 15.1284 8.91429 15.0529 8.80488C14.9813 8.69171 14.9435 8.54458 14.9398 8.3635V5.55675L15.3925 5.43226ZM16.4224 6.23581V6.62626L14.3739 6.62626V6.23581L16.4224 6.23581ZM17.3218 5.69256C17.2199 5.69256 17.1369 5.66238 17.0728 5.60202C17.0125 5.53789 16.9823 5.4549 16.9823 5.35304C16.9823 5.25118 17.0125 5.17007 17.0728 5.10971C17.1369 5.04558 17.2199 5.01351 17.3218 5.01351C17.4237 5.01351 17.5048 5.04558 17.5651 5.10971C17.6293 5.17007 17.6613 5.25118 17.6613 5.35304C17.6613 5.4549 17.6293 5.53789 17.5651 5.60202C17.5048 5.66238 17.4237 5.69256 17.3218 5.69256ZM17.5482 6.23581V9.06519H17.0955L17.0955 6.23581H17.5482ZM20.2509 7.23741C20.2509 7.02615 20.1943 6.86393 20.0812 6.75075C19.968 6.63381 19.8076 6.57533 19.6002 6.57533C19.404 6.57533 19.238 6.61871 19.1022 6.70548C18.9664 6.78848 18.8664 6.92429 18.8023 7.11291L18.4345 6.88656C18.5099 6.6753 18.6495 6.50554 18.8532 6.37727C19.0569 6.24524 19.3097 6.17922 19.6115 6.17922C19.8152 6.17922 20 6.21506 20.166 6.28673C20.332 6.35464 20.4622 6.46027 20.5565 6.60362C20.6546 6.74321 20.7036 6.92429 20.7036 7.14687V8.51629C20.7036 8.6521 20.7753 8.72 20.9187 8.72C20.9903 8.72 21.0601 8.71057 21.128 8.69171L21.1054 9.04821C21.0299 9.08593 20.9319 9.1048 20.8111 9.1048C20.7017 9.1048 20.6036 9.08405 20.5169 9.04255C20.4301 9.00105 20.3622 8.93881 20.3132 8.85581C20.2641 8.76904 20.2396 8.66153 20.2396 8.53326V8.47667L20.3528 8.49365C20.3075 8.64078 20.2302 8.7615 20.1208 8.85581C20.0114 8.94635 19.8888 9.01426 19.7529 9.05953C19.6171 9.10102 19.4832 9.12177 19.3512 9.12177C19.1852 9.12177 19.0305 9.09348 18.8872 9.03689C18.7438 8.9803 18.6287 8.89542 18.542 8.78225C18.459 8.6653 18.4175 8.52194 18.4175 8.35218C18.4175 8.14092 18.4873 7.96739 18.6269 7.83158C18.7702 7.69199 18.9683 7.59768 19.221 7.54864L20.3415 7.32795V7.70142L19.4304 7.88816C19.2455 7.92589 19.1078 7.9787 19.0173 8.04661C18.9268 8.11451 18.8815 8.20883 18.8815 8.32955C18.8815 8.44649 18.9268 8.54269 19.0173 8.61814C19.1116 8.68982 19.2437 8.72566 19.4134 8.72566C19.5228 8.72566 19.6266 8.71246 19.7247 8.68605C19.8265 8.65587 19.9171 8.61248 19.9963 8.5559C20.0755 8.49554 20.1377 8.42197 20.183 8.33521C20.2283 8.24467 20.2509 8.13904 20.2509 8.01832V7.23741ZM22.2338 4.93429V8.34652C22.2338 8.48988 22.2602 8.58985 22.313 8.64644C22.3658 8.69925 22.4507 8.72566 22.5676 8.72566C22.6431 8.72566 22.7053 8.72 22.7544 8.70868C22.8034 8.69737 22.8695 8.67662 22.9524 8.64644L22.8789 9.04255C22.8185 9.06896 22.7525 9.08782 22.6808 9.09914C22.6091 9.11423 22.5356 9.12177 22.4601 9.12177C22.23 9.12177 22.0584 9.05953 21.9452 8.93503C21.8358 8.81054 21.7811 8.62003 21.7811 8.3635V4.93429L22.2338 4.93429ZM25.8007 5.3304V9.06519H25.348V5.3304H25.8007ZM27.9967 9.12177C27.7628 9.12177 27.5478 9.0633 27.3516 8.94635C27.1555 8.8294 26.9989 8.66153 26.882 8.44272C26.765 8.22014 26.7065 7.95607 26.7065 7.6505C26.7065 7.33738 26.7688 7.07142 26.8933 6.85261C27.0178 6.6338 27.1819 6.46781 27.3856 6.35464C27.5893 6.23769 27.8081 6.17922 28.042 6.17922C28.2759 6.17922 28.4777 6.23958 28.6475 6.3603C28.821 6.48102 28.9361 6.64135 28.9927 6.84129L28.9361 6.8809V4.93429H29.3888V9.06519H28.9927L28.9531 8.38048L29.0153 8.34652C28.9889 8.51251 28.9248 8.65398 28.8229 8.77093C28.7248 8.88411 28.6022 8.97087 28.4551 9.03123C28.3117 9.09159 28.159 9.12177 27.9967 9.12177ZM28.042 8.72566C28.2231 8.72566 28.3797 8.68039 28.5117 8.58985C28.6475 8.49931 28.7512 8.37104 28.8229 8.20505C28.8984 8.03529 28.9361 7.83723 28.9361 7.61088C28.9361 7.39585 28.8984 7.211 28.8229 7.05633C28.7512 6.90165 28.6494 6.78282 28.5173 6.69982C28.3891 6.61683 28.2382 6.57533 28.0646 6.57533C27.7779 6.57533 27.5554 6.67342 27.3969 6.86959C27.2385 7.06576 27.1592 7.32606 27.1592 7.6505C27.1592 7.97493 27.2366 8.23523 27.3913 8.4314C27.5459 8.62757 27.7628 8.72566 28.042 8.72566ZM31.6237 9.12177C31.3559 9.12177 31.1163 9.0633 30.9051 8.94635C30.6976 8.8294 30.5354 8.66153 30.4184 8.44272C30.3015 8.22014 30.243 7.95607 30.243 7.6505C30.243 7.34492 30.3015 7.08273 30.4184 6.86393C30.5354 6.64135 30.6957 6.47159 30.8994 6.35464C31.1031 6.23769 31.3351 6.17922 31.5954 6.17922C31.8595 6.17922 32.084 6.23581 32.2688 6.34898C32.4575 6.46216 32.6008 6.61683 32.6989 6.813C32.797 7.0054 32.846 7.22232 32.846 7.46376C32.846 7.52789 32.8441 7.58636 32.8404 7.63918C32.8366 7.69199 32.8309 7.73915 32.8234 7.78065H30.5373V7.37888H32.6253L32.3933 7.42415C32.3933 7.15252 32.3179 6.94315 32.167 6.79602C32.0199 6.6489 31.8256 6.57533 31.5841 6.57533C31.3993 6.57533 31.2389 6.61871 31.1031 6.70548C30.9711 6.78848 30.8674 6.91108 30.7919 7.0733C30.7202 7.23175 30.6844 7.42415 30.6844 7.6505C30.6844 7.87307 30.7221 8.06547 30.7976 8.22769C30.873 8.38991 30.9786 8.5144 31.1145 8.60117C31.254 8.68416 31.42 8.72566 31.6124 8.72566C31.8199 8.72566 31.9878 8.68605 32.1161 8.60683C32.2481 8.5276 32.3537 8.42009 32.4329 8.28428L32.7894 8.49365C32.7178 8.62192 32.6253 8.7332 32.5122 8.82752C32.4028 8.92183 32.2726 8.99539 32.1217 9.04821C31.9746 9.09725 31.8086 9.12177 31.6237 9.12177ZM35.3594 7.23741C35.3594 7.02615 35.3028 6.86393 35.1896 6.75075C35.0764 6.63381 34.9161 6.57533 34.7086 6.57533C34.5124 6.57533 34.3464 6.61871 34.2106 6.70548C34.0748 6.78848 33.9749 6.92429 33.9107 7.11291L33.5429 6.88656C33.6184 6.6753 33.7579 6.50554 33.9617 6.37727C34.1654 6.24524 34.4181 6.17922 34.7199 6.17922C34.9236 6.17922 35.1085 6.21506 35.2745 6.28673C35.4405 6.35464 35.5706 6.46027 35.6649 6.60362C35.763 6.74321 35.8121 6.92429 35.8121 7.14687V8.51629C35.8121 8.6521 35.8837 8.72 36.0271 8.72C36.0988 8.72 36.1686 8.71057 36.2365 8.69171L36.2138 9.04821C36.1384 9.08593 36.0403 9.1048 35.9196 9.1048C35.8102 9.1048 35.7121 9.08405 35.6253 9.04255C35.5386 9.00105 35.4707 8.93881 35.4216 8.85581C35.3726 8.76904 35.348 8.66153 35.348 8.53326V8.47667L35.4612 8.49365C35.416 8.64078 35.3386 8.7615 35.2292 8.85581C35.1198 8.94635 34.9972 9.01426 34.8614 9.05953C34.7256 9.10102 34.5917 9.12177 34.4596 9.12177C34.2936 9.12177 34.139 9.09348 33.9956 9.03689C33.8522 8.9803 33.7372 8.89542 33.6504 8.78225C33.5674 8.6653 33.5259 8.52194 33.5259 8.35218C33.5259 8.14092 33.5957 7.96739 33.7353 7.83158C33.8787 7.69199 34.0767 7.59768 34.3295 7.54864L35.4499 7.32795V7.70142L34.5388 7.88816C34.354 7.92589 34.2163 7.9787 34.1258 8.04661C34.0352 8.11451 33.9899 8.20883 33.9899 8.32955C33.9899 8.44649 34.0352 8.54269 34.1258 8.61814C34.2201 8.68982 34.3521 8.72566 34.5219 8.72566C34.6313 8.72566 34.735 8.71246 34.8331 8.68605C34.935 8.65587 35.0255 8.61248 35.1047 8.5559C35.1839 8.49554 35.2462 8.42197 35.2915 8.33521C35.3367 8.24467 35.3594 8.13904 35.3594 8.01832V7.23741ZM37.9307 9.12177C37.6553 9.12177 37.4007 9.0633 37.1668 8.94635C36.9367 8.8294 36.7594 8.66341 36.6349 8.44838L37.0197 8.1711C37.1027 8.34464 37.2234 8.48045 37.3818 8.57853C37.5441 8.67662 37.7383 8.72566 37.9647 8.72566C38.1646 8.72566 38.3212 8.68793 38.4344 8.61248C38.5475 8.53326 38.6041 8.4314 38.6041 8.30691C38.6041 8.22769 38.5777 8.15601 38.5249 8.09188C38.4759 8.02397 38.3797 7.97493 38.2363 7.94475L37.5573 7.80328C37.2819 7.74669 37.0838 7.65238 36.9631 7.52034C36.8461 7.38831 36.7877 7.2242 36.7877 7.02803C36.7877 6.87336 36.8311 6.73189 36.9178 6.60362C37.0084 6.47536 37.1347 6.3735 37.297 6.29805C37.4629 6.21883 37.6572 6.17922 37.8798 6.17922C38.159 6.17922 38.3948 6.23392 38.5872 6.34332C38.7796 6.45272 38.9229 6.6074 39.0172 6.80734L38.6381 7.05633C38.574 6.89034 38.4702 6.76962 38.3269 6.69417C38.1835 6.61494 38.0345 6.57533 37.8798 6.57533C37.744 6.57533 37.6271 6.59419 37.529 6.63192C37.4347 6.66964 37.3611 6.72246 37.3083 6.79036C37.2592 6.8545 37.2347 6.92806 37.2347 7.01106C37.2347 7.09405 37.263 7.17139 37.3196 7.24306C37.3762 7.31097 37.4818 7.36001 37.6365 7.39019L38.3438 7.53732C38.6079 7.59014 38.7928 7.6769 38.8984 7.79762C39.004 7.91834 39.0568 8.06547 39.0568 8.23901C39.0568 8.41631 39.0097 8.57287 38.9154 8.70868C38.8211 8.84072 38.689 8.94258 38.5193 9.01426C38.3495 9.08593 38.1533 9.12177 37.9307 9.12177ZM42.8686 4.906C42.9667 4.906 43.0591 4.91731 43.1459 4.93995C43.2327 4.96258 43.3006 4.99465 43.3496 5.03615L43.2308 5.40397C43.1855 5.37379 43.1365 5.35304 43.0837 5.34172C43.0308 5.32663 42.9724 5.31909 42.9082 5.31909C42.746 5.31909 42.6196 5.3587 42.5291 5.43792C42.4386 5.51337 42.3933 5.63598 42.3933 5.80574V6.23581V6.38293V9.06519H41.9406V5.76047C41.9406 5.63598 41.9595 5.52092 41.9972 5.41529C42.0349 5.30966 42.0915 5.21912 42.1669 5.14367C42.2462 5.06821 42.3442 5.00974 42.4612 4.96824C42.5781 4.92675 42.714 4.906 42.8686 4.906ZM43.3383 6.23581V6.62626H41.3747V6.23581H43.3383ZM45.0354 6.17922C45.3032 6.17922 45.539 6.23769 45.7427 6.35464C45.9502 6.47159 46.1125 6.64135 46.2294 6.86393C46.3463 7.08273 46.4048 7.34492 46.4048 7.6505C46.4048 7.95607 46.3463 8.22014 46.2294 8.44272C46.1125 8.66153 45.9502 8.8294 45.7427 8.94635C45.539 9.0633 45.3032 9.12177 45.0354 9.12177C44.7713 9.12177 44.5355 9.0633 44.3281 8.94635C44.1206 8.8294 43.9583 8.66153 43.8414 8.44272C43.7245 8.22014 43.666 7.95607 43.666 7.6505C43.666 7.34492 43.7245 7.08273 43.8414 6.86393C43.9583 6.64135 44.1206 6.47159 44.3281 6.35464C44.5355 6.23769 44.7713 6.17922 45.0354 6.17922ZM45.0354 6.56967C44.843 6.56967 44.6789 6.61306 44.5431 6.69982C44.4073 6.78659 44.3016 6.91108 44.2262 7.0733C44.1545 7.23175 44.1187 7.42415 44.1187 7.6505C44.1187 7.87307 44.1545 8.06547 44.2262 8.22769C44.3016 8.38991 44.4073 8.5144 44.5431 8.60117C44.6789 8.68793 44.843 8.73132 45.0354 8.73132C45.2278 8.73132 45.3919 8.68793 45.5277 8.60117C45.6635 8.5144 45.7673 8.38991 45.8389 8.22769C45.9144 8.06547 45.9521 7.87307 45.9521 7.6505C45.9521 7.42415 45.9144 7.23175 45.8389 7.0733C45.7673 6.91108 45.6635 6.78659 45.5277 6.69982C45.3919 6.61306 45.2278 6.56967 45.0354 6.56967ZM47.2571 9.06519V6.23581H47.6249L47.6872 6.69982C47.7664 6.52629 47.8814 6.39614 48.0323 6.30937C48.187 6.2226 48.3737 6.17922 48.5926 6.17922C48.6416 6.17922 48.6944 6.18299 48.751 6.19054C48.8114 6.19808 48.8623 6.21317 48.9038 6.23581L48.8246 6.6489C48.7831 6.63381 48.7378 6.62249 48.6888 6.61494C48.6397 6.6074 48.5699 6.60362 48.4794 6.60362C48.3624 6.60362 48.2436 6.63758 48.1229 6.70548C48.0059 6.77339 47.9078 6.87713 47.8286 7.01671C47.7494 7.15252 47.7098 7.32606 47.7098 7.53732V9.06519H47.2571ZM54.3735 5.3304L52.7437 6.99974L52.6758 7.0733L51.6742 8.09754V7.48639L53.7793 5.3304L54.3735 5.3304ZM51.9006 5.3304V9.06519H51.4479V5.3304H51.9006ZM52.789 6.71114L54.3904 9.06519H53.8472L52.4155 6.96579L52.789 6.71114ZM56.6516 7.23741C56.6516 7.02615 56.595 6.86393 56.4818 6.75075C56.3686 6.63381 56.2083 6.57533 56.0008 6.57533C55.8046 6.57533 55.6386 6.61871 55.5028 6.70548C55.367 6.78848 55.267 6.92429 55.2029 7.11291L54.8351 6.88656C54.9105 6.6753 55.0501 6.50554 55.2538 6.37727C55.4576 6.24524 55.7103 6.17922 56.0121 6.17922C56.2158 6.17922 56.4007 6.21506 56.5667 6.28673C56.7327 6.35464 56.8628 6.46027 56.9571 6.60362C57.0552 6.74321 57.1043 6.92429 57.1043 7.14687V8.51629C57.1043 8.6521 57.1759 8.72 57.3193 8.72C57.391 8.72 57.4608 8.71057 57.5287 8.69171L57.506 9.04821C57.4306 9.08593 57.3325 9.1048 57.2118 9.1048C57.1024 9.1048 57.0043 9.08405 56.9175 9.04255C56.8307 9.00105 56.7628 8.93881 56.7138 8.85581C56.6648 8.76904 56.6402 8.66153 56.6402 8.53326V8.47667L56.7534 8.49365C56.7081 8.64078 56.6308 8.7615 56.5214 8.85581C56.412 8.94635 56.2894 9.01426 56.1536 9.05953C56.0178 9.10102 55.8838 9.12177 55.7518 9.12177C55.5858 9.12177 55.4311 9.09348 55.2878 9.03689C55.1444 8.9803 55.0294 8.89542 54.9426 8.78225C54.8596 8.6653 54.8181 8.52194 54.8181 8.35218C54.8181 8.14092 54.8879 7.96739 55.0275 7.83158C55.1708 7.69199 55.3689 7.59768 55.6217 7.54864L56.7421 7.32795V7.70142L55.831 7.88816C55.6462 7.92589 55.5085 7.9787 55.4179 8.04661C55.3274 8.11451 55.2821 8.20883 55.2821 8.32955C55.2821 8.44649 55.3274 8.54269 55.4179 8.61814C55.5123 8.68982 55.6443 8.72566 55.8141 8.72566C55.9235 8.72566 56.0272 8.71246 56.1253 8.68605C56.2271 8.65587 56.3177 8.61248 56.3969 8.5559C56.4761 8.49554 56.5384 8.42197 56.5836 8.33521C56.6289 8.24467 56.6516 8.13904 56.6516 8.01832V7.23741ZM58.7616 5.43226V8.28428C58.7616 8.42386 58.8012 8.5276 58.8804 8.59551C58.9596 8.66341 59.0615 8.69737 59.186 8.69737C59.2954 8.69737 59.3897 8.6785 59.4689 8.64078C59.5481 8.60305 59.6198 8.55212 59.6839 8.48799L59.8424 8.86713C59.7556 8.94635 59.6519 9.0086 59.5312 9.05387C59.4142 9.09914 59.2784 9.12177 59.1237 9.12177C58.9804 9.12177 58.8464 9.09725 58.7219 9.04821C58.5975 8.99539 58.4975 8.91429 58.422 8.80488C58.3504 8.69171 58.3126 8.54458 58.3089 8.3635V5.55675L58.7616 5.43226ZM59.7915 6.23581V6.62626H57.743V6.23581H59.7915ZM61.6472 9.12177C61.3794 9.12177 61.1398 9.0633 60.9286 8.94635C60.7211 8.8294 60.5589 8.66153 60.4419 8.44272C60.325 8.22014 60.2665 7.95607 60.2665 7.6505C60.2665 7.34492 60.325 7.08273 60.4419 6.86393C60.5589 6.64135 60.7192 6.47159 60.9229 6.35464C61.1266 6.23769 61.3586 6.17922 61.6189 6.17922C61.883 6.17922 62.1075 6.23581 62.2923 6.34898C62.4809 6.46216 62.6243 6.61683 62.7224 6.813C62.8205 7.0054 62.8695 7.22232 62.8695 7.46376C62.8695 7.52789 62.8676 7.58636 62.8639 7.63918C62.8601 7.69199 62.8544 7.73915 62.8469 7.78065H60.5607V7.37888H62.6488L62.4168 7.42415C62.4168 7.15252 62.3414 6.94315 62.1905 6.79602C62.0433 6.6489 61.849 6.57533 61.6076 6.57533C61.4228 6.57533 61.2624 6.61871 61.1266 6.70548C60.9946 6.78848 60.8908 6.91108 60.8154 7.0733C60.7437 7.23175 60.7079 7.42415 60.7079 7.6505C60.7079 7.87307 60.7456 8.06547 60.821 8.22769C60.8965 8.38991 61.0021 8.5144 61.1379 8.60117C61.2775 8.68416 61.4435 8.72566 61.6359 8.72566C61.8434 8.72566 62.0113 8.68605 62.1395 8.60683C62.2716 8.5276 62.3772 8.42009 62.4564 8.28428L62.8129 8.49365C62.7412 8.62192 62.6488 8.7332 62.5356 8.82752C62.4262 8.92183 62.2961 8.99539 62.1452 9.04821C61.9981 9.09725 61.8321 9.12177 61.6472 9.12177Z" fill="#1B0F0F"/>
<rect width="588.983" height="15.09" transform="translate(74.9786)" fill="#F4F2F0"/>
<path d="M82.3468 4.89241C82.3468 4.79475 82.4259 4.71558 82.5236 4.71558C82.6213 4.71558 82.7004 4.79475 82.7004 4.89241V10.1975C82.7004 10.2952 82.6213 10.3743 82.5236 10.3743C82.4259 10.3743 82.3468 10.2952 82.3468 10.1975V4.89241Z" fill="#ACA4A3"/>
<path d="M79.6942 7.54496C79.6942 7.44729 79.7734 7.36812 79.8711 7.36812H85.1761C85.2738 7.36812 85.353 7.44729 85.353 7.54496C85.353 7.64262 85.2738 7.72179 85.1761 7.72179H79.8711C79.7734 7.72179 79.6942 7.64262 79.6942 7.54496Z" fill="#ACA4A3"/>
<g filter="url(#filter0_d_743_4251)">
<rect width="663.961" height="17.545" transform="translate(0 15.09)" fill="white"/>
<path d="M14.3041 22.3905V24.7483M13.1252 23.5692H15.483M17.8408 22.9801C17.8408 26.0845 15.1167 27.8258 14.4499 28.2066C14.3594 28.2583 14.2484 28.2583 14.1579 28.2066C13.491 27.8254 10.7674 26.0838 10.7674 22.9801C10.7674 21.0268 12.3508 19.4434 14.3041 19.4434C16.2574 19.4434 17.8408 21.0268 17.8408 22.9801Z" stroke="#1B0F0F" stroke-width="0.471563" stroke-linecap="round" stroke-linejoin="round"/>
<path d="M14.6185 20.5616C14.6185 18.9989 15.8852 17.7322 17.4478 17.7322V17.7322C19.0105 17.7322 20.2772 18.9989 20.2772 20.5616V20.5616C20.2772 22.1242 19.0105 23.3909 17.4478 23.3909V23.3909C15.8852 23.3909 14.6185 22.1242 14.6185 20.5616V20.5616Z" fill="#1B0F0F"/>
<path d="M17.4495 19.2084C17.618 19.2084 17.7638 19.236 17.8871 19.2914C18.0128 19.3442 18.1097 19.4196 18.1776 19.5177C18.2455 19.6158 18.2794 19.734 18.2794 19.8723C18.2794 20.0006 18.248 20.1138 18.1851 20.2119C18.1247 20.3074 18.0355 20.3804 17.9173 20.4307V20.4344C18.0606 20.4873 18.1738 20.5665 18.2568 20.6721C18.3423 20.7752 18.3851 20.9035 18.3851 21.0569C18.3851 21.2053 18.3461 21.3323 18.2681 21.4379C18.1927 21.5436 18.0845 21.6253 17.9437 21.6831C17.8053 21.741 17.6406 21.7699 17.4495 21.7699C17.2583 21.7699 17.0923 21.741 16.9515 21.6831C16.8132 21.6253 16.705 21.5436 16.6271 21.4379C16.5491 21.3323 16.5101 21.2053 16.5101 21.0569C16.5101 20.906 16.5516 20.7777 16.6346 20.6721C16.7176 20.5665 16.8333 20.4873 16.9817 20.4344V20.4307C16.8685 20.3829 16.7792 20.3112 16.7138 20.2156C16.6484 20.1175 16.6157 20.0031 16.6157 19.8723C16.6157 19.734 16.6497 19.6158 16.7176 19.5177C16.7855 19.4196 16.8823 19.3442 17.0081 19.2914C17.1338 19.236 17.281 19.2084 17.4495 19.2084ZM17.4495 19.5479C17.3162 19.5479 17.2093 19.5806 17.1288 19.646C17.0508 19.7114 17.0119 19.8007 17.0119 19.9138C17.0119 20.027 17.0521 20.1163 17.1326 20.1817C17.2131 20.2446 17.3187 20.276 17.4495 20.276C17.5803 20.276 17.6846 20.2446 17.7626 20.1817C17.8431 20.1163 17.8833 20.027 17.8833 19.9138C17.8833 19.8007 17.8443 19.7114 17.7664 19.646C17.6884 19.5806 17.5828 19.5479 17.4495 19.5479ZM17.4495 21.4304C17.5601 21.4304 17.6544 21.414 17.7324 21.3813C17.8104 21.3486 17.8707 21.3009 17.9135 21.238C17.9562 21.1751 17.9776 21.1022 17.9776 21.0192C17.9776 20.9311 17.955 20.857 17.9097 20.7966C17.867 20.7337 17.8066 20.6859 17.7286 20.6532C17.6507 20.6205 17.5576 20.6042 17.4495 20.6042C17.3438 20.6042 17.2508 20.6205 17.1703 20.6532C17.0898 20.6859 17.0269 20.7337 16.9817 20.7966C16.9389 20.857 16.9175 20.9311 16.9175 21.0192C16.9175 21.1022 16.9389 21.1751 16.9817 21.238C17.0244 21.3009 17.0861 21.3486 17.1665 21.3813C17.247 21.414 17.3413 21.4304 17.4495 21.4304Z" fill="white"/>
<line x1="22.8708" y1="17.4964" x2="22.8708" y2="30.2286" stroke="#DAD3CF" stroke-width="0.471563" stroke-linecap="round"/>
<path d="M27.4059 20.3347H31.1469M34.8878 20.3347H31.1469M31.1469 20.3347V27.3904" stroke="black" stroke-width="0.473536" stroke-linecap="round"/>
<line x1="39.8471" y1="17.4964" x2="39.8471" y2="30.2286" stroke="#DAD3CF" stroke-width="0.471563" stroke-linecap="round"/>
<path d="M43.5673 27.2632L43.8662 27.562C44.1424 27.8383 44.5903 27.8383 44.8665 27.562L49.5902 22.8384L48.291 21.5392L43.5673 26.2629C43.2911 26.5391 43.2911 26.987 43.5673 27.2632Z" fill="#1B0F0F" stroke="#1B0F0F" stroke-width="0.471563"/>
<rect x="50.0588" y="19.7714" width="1.83729" height="9.89089" rx="0.707345" transform="rotate(45 50.0588 19.7714)" stroke="#1B0F0F" stroke-width="0.471563"/>
<line x1="49.2966" y1="25.5313" x2="49.2966" y2="27.8983" stroke="#1B0F0F" stroke-width="0.471563" stroke-linecap="round"/>
<line x1="45.5756" y1="19.8543" x2="45.5756" y2="21.5117" stroke="#1B0F0F" stroke-width="0.471563" stroke-linecap="round"/>
<line x1="48.5869" y1="26.4789" x2="49.8895" y2="26.4789" stroke="#1B0F0F" stroke-width="0.471563" stroke-linecap="round"/>
<line x1="45.0434" y1="20.4471" x2="45.9911" y2="20.4471" stroke="#1B0F0F" stroke-width="0.471563" stroke-linecap="round"/>
<path d="M55.6445 24.9236L54.7256 23.5973L56.5634 23.5973L55.6445 24.9236Z" fill="#1B0F0F"/>
<path d="M311.382 21.2603V26.8624H310.703V21.2603H311.382ZM313.046 26.8624V22.6184H313.64L313.699 23.569L313.589 23.4757C313.68 23.2493 313.801 23.0682 313.954 22.9324C314.107 22.7909 314.282 22.6891 314.48 22.6268C314.684 22.5646 314.893 22.5335 315.108 22.5335C315.414 22.5335 315.691 22.5929 315.94 22.7117C316.189 22.8249 316.387 23.0003 316.534 23.238C316.687 23.4757 316.764 23.7784 316.764 24.1462V26.8624H316.085V24.3839C316.085 23.9142 315.983 23.5888 315.779 23.4078C315.581 23.221 315.335 23.1276 315.041 23.1276C314.837 23.1276 314.633 23.1757 314.429 23.2719C314.226 23.3681 314.056 23.5238 313.92 23.7388C313.79 23.9538 313.725 24.2424 313.725 24.6046V26.8624H313.046ZM318.641 21.8035C318.488 21.8035 318.363 21.7582 318.267 21.6677C318.177 21.5715 318.131 21.447 318.131 21.2942C318.131 21.1414 318.177 21.0198 318.267 20.9292C318.363 20.833 318.488 20.7849 318.641 20.7849C318.793 20.7849 318.915 20.833 319.006 20.9292C319.102 21.0198 319.15 21.1414 319.15 21.2942C319.15 21.447 319.102 21.5715 319.006 21.6677C318.915 21.7582 318.793 21.8035 318.641 21.8035ZM318.98 22.6184V26.8624H318.301V22.6184H318.98ZM321.557 21.413V25.6911C321.557 25.9004 321.617 26.0561 321.736 26.1579C321.854 26.2598 322.007 26.3107 322.194 26.3107C322.358 26.3107 322.5 26.2824 322.618 26.2258C322.737 26.1692 322.845 26.0928 322.941 25.9966L323.179 26.5653C323.048 26.6842 322.893 26.7775 322.712 26.8455C322.536 26.9134 322.333 26.9473 322.101 26.9473C321.886 26.9473 321.685 26.9105 321.498 26.837C321.311 26.7577 321.161 26.6361 321.048 26.472C320.941 26.3022 320.884 26.0815 320.878 25.8099V21.5998L321.557 21.413ZM323.102 22.6184V23.204H320.03V22.6184H323.102ZM324.451 21.8035C324.299 21.8035 324.174 21.7582 324.078 21.6677C323.987 21.5715 323.942 21.447 323.942 21.2942C323.942 21.1414 323.987 21.0198 324.078 20.9292C324.174 20.833 324.299 20.7849 324.451 20.7849C324.604 20.7849 324.726 20.833 324.816 20.9292C324.913 21.0198 324.961 21.1414 324.961 21.2942C324.961 21.447 324.913 21.5715 324.816 21.6677C324.726 21.7582 324.604 21.8035 324.451 21.8035ZM324.791 22.6184V26.8624H324.112V22.6184H324.791ZM328.845 24.1208C328.845 23.8039 328.76 23.5605 328.59 23.3908C328.421 23.2154 328.18 23.1276 327.869 23.1276C327.575 23.1276 327.326 23.1927 327.122 23.3229C326.918 23.4474 326.768 23.6511 326.672 23.934L326.12 23.5945C326.234 23.2776 326.443 23.023 326.748 22.8306C327.054 22.6325 327.433 22.5335 327.886 22.5335C328.191 22.5335 328.469 22.5872 328.718 22.6948C328.967 22.7966 329.162 22.9551 329.303 23.1701C329.451 23.3795 329.524 23.6511 329.524 23.9849V26.0391C329.524 26.2428 329.632 26.3447 329.847 26.3447C329.954 26.3447 330.059 26.3305 330.161 26.3022L330.127 26.837C330.014 26.8935 329.866 26.9218 329.685 26.9218C329.521 26.9218 329.374 26.8907 329.244 26.8285C329.114 26.7662 329.012 26.6729 328.938 26.5484C328.865 26.4182 328.828 26.2569 328.828 26.0645V25.9797L328.998 26.0051C328.93 26.2258 328.814 26.4069 328.65 26.5484C328.486 26.6842 328.302 26.786 328.098 26.8539C327.894 26.9162 327.694 26.9473 327.495 26.9473C327.246 26.9473 327.014 26.9049 326.799 26.82C326.584 26.7351 326.412 26.6078 326.282 26.438C326.157 26.2626 326.095 26.0476 326.095 25.7929C326.095 25.476 326.2 25.2157 326.409 25.012C326.624 24.8026 326.921 24.6612 327.3 24.5876L328.981 24.2566V24.8168L327.614 25.0969C327.337 25.1535 327.13 25.2327 326.995 25.3346C326.859 25.4364 326.791 25.5779 326.791 25.759C326.791 25.9344 326.859 26.0787 326.995 26.1919C327.136 26.2994 327.334 26.3531 327.589 26.3531C327.753 26.3531 327.909 26.3333 328.056 26.2937C328.208 26.2485 328.344 26.1834 328.463 26.0985C328.582 26.008 328.675 25.8976 328.743 25.7675C328.811 25.6316 328.845 25.4732 328.845 25.2921V24.1208ZM331.819 20.6661V25.7844C331.819 25.9995 331.859 26.1494 331.938 26.2343C332.017 26.3135 332.145 26.3531 332.32 26.3531C332.433 26.3531 332.527 26.3447 332.6 26.3277C332.674 26.3107 332.773 26.2796 332.897 26.2343L332.787 26.8285C332.696 26.8681 332.597 26.8964 332.49 26.9134C332.382 26.936 332.272 26.9473 332.159 26.9473C331.814 26.9473 331.556 26.8539 331.386 26.6672C331.222 26.4805 331.14 26.1947 331.14 25.8099V20.6661H331.819ZM337.17 21.2603V26.8624H336.491V21.2603H337.17ZM340.464 26.9473C340.113 26.9473 339.79 26.8596 339.496 26.6842C339.202 26.5088 338.967 26.2569 338.792 25.9287C338.616 25.5949 338.529 25.1988 338.529 24.7404C338.529 24.2707 338.622 23.8718 338.809 23.5436C338.995 23.2154 339.242 22.9664 339.547 22.7966C339.853 22.6212 340.181 22.5335 340.532 22.5335C340.883 22.5335 341.185 22.624 341.44 22.8051C341.7 22.9862 341.873 23.2267 341.958 23.5266L341.873 23.586V20.6661H342.552V26.8624H341.958L341.898 25.8354L341.992 25.7844C341.952 26.0334 341.856 26.2456 341.703 26.421C341.556 26.5908 341.372 26.721 341.151 26.8115C340.936 26.902 340.707 26.9473 340.464 26.9473ZM340.532 26.3531C340.803 26.3531 341.038 26.2852 341.236 26.1494C341.44 26.0136 341.596 25.8212 341.703 25.5722C341.816 25.3176 341.873 25.0205 341.873 24.681C341.873 24.3584 341.816 24.0811 341.703 23.8491C341.596 23.6171 341.443 23.4389 341.245 23.3144C341.052 23.1899 340.826 23.1276 340.566 23.1276C340.136 23.1276 339.802 23.2748 339.564 23.569C339.326 23.8633 339.208 24.2537 339.208 24.7404C339.208 25.227 339.324 25.6175 339.556 25.9118C339.788 26.206 340.113 26.3531 340.532 26.3531ZM345.904 26.9473C345.503 26.9473 345.143 26.8596 344.826 26.6842C344.515 26.5088 344.272 26.2569 344.096 25.9287C343.921 25.5949 343.833 25.1988 343.833 24.7404C343.833 24.282 343.921 23.8887 344.096 23.5605C344.272 23.2267 344.512 22.972 344.818 22.7966C345.123 22.6212 345.471 22.5335 345.862 22.5335C346.258 22.5335 346.595 22.6184 346.872 22.7881C347.155 22.9579 347.37 23.1899 347.517 23.4841C347.664 23.7727 347.738 24.0981 347.738 24.4603C347.738 24.5565 347.735 24.6442 347.729 24.7234C347.724 24.8026 347.715 24.8734 347.704 24.9356H344.275V24.333H347.407L347.059 24.4009C347.059 23.9934 346.946 23.6794 346.719 23.4587C346.498 23.238 346.207 23.1276 345.845 23.1276C345.568 23.1276 345.327 23.1927 345.123 23.3229C344.925 23.4474 344.77 23.6313 344.657 23.8746C344.549 24.1123 344.495 24.4009 344.495 24.7404C344.495 25.0743 344.552 25.3629 344.665 25.6062C344.778 25.8495 344.937 26.0362 345.14 26.1664C345.35 26.2909 345.599 26.3531 345.887 26.3531C346.199 26.3531 346.45 26.2937 346.643 26.1749C346.841 26.0561 346.999 25.8948 347.118 25.6911L347.653 26.0051C347.545 26.1975 347.407 26.3645 347.237 26.5059C347.073 26.6474 346.878 26.7577 346.651 26.837C346.431 26.9105 346.182 26.9473 345.904 26.9473ZM351.508 24.1208C351.508 23.8039 351.423 23.5605 351.253 23.3908C351.083 23.2154 350.843 23.1276 350.532 23.1276C350.237 23.1276 349.988 23.1927 349.785 23.3229C349.581 23.4474 349.431 23.6511 349.335 23.934L348.783 23.5945C348.896 23.2776 349.106 23.023 349.411 22.8306C349.717 22.6325 350.096 22.5335 350.549 22.5335C350.854 22.5335 351.131 22.5872 351.38 22.6948C351.629 22.7966 351.825 22.9551 351.966 23.1701C352.113 23.3795 352.187 23.6511 352.187 23.9849V26.0391C352.187 26.2428 352.294 26.3447 352.509 26.3447C352.617 26.3447 352.722 26.3305 352.823 26.3022L352.789 26.837C352.676 26.8935 352.529 26.9218 352.348 26.9218C352.184 26.9218 352.037 26.8907 351.907 26.8285C351.777 26.7662 351.675 26.6729 351.601 26.5484C351.528 26.4182 351.491 26.2569 351.491 26.0645V25.9797L351.661 26.0051C351.593 26.2258 351.477 26.4069 351.313 26.5484C351.148 26.6842 350.964 26.786 350.761 26.8539C350.557 26.9162 350.356 26.9473 350.158 26.9473C349.909 26.9473 349.677 26.9049 349.462 26.82C349.247 26.7351 349.074 26.6078 348.944 26.438C348.82 26.2626 348.758 26.0476 348.758 25.7929C348.758 25.476 348.862 25.2157 349.072 25.012C349.287 24.8026 349.584 24.6612 349.963 24.5876L351.644 24.2566V24.8168L350.277 25.0969C350 25.1535 349.793 25.2327 349.657 25.3346C349.522 25.4364 349.454 25.5779 349.454 25.759C349.454 25.9344 349.522 26.0787 349.657 26.1919C349.799 26.2994 349.997 26.3531 350.251 26.3531C350.416 26.3531 350.571 26.3333 350.718 26.2937C350.871 26.2485 351.007 26.1834 351.126 26.0985C351.245 26.008 351.338 25.8976 351.406 25.7675C351.474 25.6316 351.508 25.4732 351.508 25.2921V24.1208ZM355.365 26.9473C354.952 26.9473 354.57 26.8596 354.219 26.6842C353.874 26.5088 353.608 26.2598 353.421 25.9372L353.998 25.5213C354.123 25.7816 354.304 25.9853 354.541 26.1324C354.785 26.2796 355.076 26.3531 355.416 26.3531C355.716 26.3531 355.95 26.2966 356.12 26.1834C356.29 26.0645 356.375 25.9118 356.375 25.725C356.375 25.6062 356.335 25.4987 356.256 25.4025C356.182 25.3006 356.038 25.227 355.823 25.1818L354.805 24.9696C354.391 24.8847 354.094 24.7432 353.913 24.5452C353.738 24.3471 353.65 24.101 353.65 23.8067C353.65 23.5747 353.715 23.3625 353.845 23.1701C353.981 22.9777 354.171 22.8249 354.414 22.7117C354.663 22.5929 354.955 22.5335 355.288 22.5335C355.707 22.5335 356.061 22.6155 356.349 22.7796C356.638 22.9437 356.853 23.1757 356.995 23.4757L356.426 23.8491C356.33 23.6002 356.174 23.4191 355.959 23.3059C355.744 23.1871 355.52 23.1276 355.288 23.1276C355.085 23.1276 354.909 23.1559 354.762 23.2125C354.621 23.2691 354.51 23.3483 354.431 23.4502C354.358 23.5464 354.321 23.6567 354.321 23.7812C354.321 23.9057 354.363 24.0217 354.448 24.1292C354.533 24.2311 354.691 24.3047 354.923 24.3499L355.984 24.5706C356.381 24.6499 356.658 24.78 356.816 24.9611C356.975 25.1422 357.054 25.3629 357.054 25.6232C357.054 25.8891 356.983 26.124 356.842 26.3277C356.7 26.5257 356.502 26.6785 356.248 26.786C355.993 26.8935 355.699 26.9473 355.365 26.9473ZM362.772 20.6236C362.919 20.6236 363.057 20.6406 363.188 20.6746C363.318 20.7085 363.42 20.7566 363.493 20.8189L363.315 21.3706C363.247 21.3253 363.173 21.2942 363.094 21.2772C363.015 21.2546 362.927 21.2433 362.831 21.2433C362.588 21.2433 362.398 21.3027 362.262 21.4215C362.127 21.5347 362.059 21.7186 362.059 21.9733V22.6184V22.839V26.8624H361.38V21.9054C361.38 21.7186 361.408 21.546 361.464 21.3876C361.521 21.2291 361.606 21.0933 361.719 20.9801C361.838 20.867 361.985 20.7793 362.16 20.717C362.336 20.6548 362.54 20.6236 362.772 20.6236ZM363.476 22.6184V23.204H360.531V22.6184H363.476ZM366.022 22.5335C366.424 22.5335 366.777 22.6212 367.083 22.7966C367.394 22.972 367.637 23.2267 367.813 23.5605C367.988 23.8887 368.076 24.282 368.076 24.7404C368.076 25.1988 367.988 25.5949 367.813 25.9287C367.637 26.2569 367.394 26.5088 367.083 26.6842C366.777 26.8596 366.424 26.9473 366.022 26.9473C365.626 26.9473 365.272 26.8596 364.961 26.6842C364.65 26.5088 364.406 26.2569 364.231 25.9287C364.055 25.5949 363.968 25.1988 363.968 24.7404C363.968 24.282 364.055 23.8887 364.231 23.5605C364.406 23.2267 364.65 22.972 364.961 22.7966C365.272 22.6212 365.626 22.5335 366.022 22.5335ZM366.022 23.1192C365.733 23.1192 365.487 23.1842 365.283 23.3144C365.08 23.4445 364.921 23.6313 364.808 23.8746C364.7 24.1123 364.647 24.4009 364.647 24.7404C364.647 25.0743 364.7 25.3629 364.808 25.6062C364.921 25.8495 365.08 26.0362 365.283 26.1664C365.487 26.2966 365.733 26.3616 366.022 26.3616C366.31 26.3616 366.557 26.2966 366.76 26.1664C366.964 26.0362 367.12 25.8495 367.227 25.6062C367.34 25.3629 367.397 25.0743 367.397 24.7404C367.397 24.4009 367.34 24.1123 367.227 23.8746C367.12 23.6313 366.964 23.4445 366.76 23.3144C366.557 23.1842 366.31 23.1192 366.022 23.1192ZM369.354 26.8624V22.6184H369.906L369.999 23.3144C370.118 23.0541 370.291 22.8589 370.517 22.7287C370.749 22.5986 371.029 22.5335 371.358 22.5335C371.431 22.5335 371.51 22.5391 371.595 22.5505C371.686 22.5618 371.762 22.5844 371.824 22.6184L371.706 23.238C371.643 23.2154 371.575 23.1984 371.502 23.1871C371.428 23.1757 371.324 23.1701 371.188 23.1701C371.012 23.1701 370.834 23.221 370.653 23.3229C370.478 23.4247 370.33 23.5803 370.212 23.7897C370.093 23.9934 370.033 24.2537 370.033 24.5706V26.8624H369.354ZM380.029 21.2603L377.584 23.7643L377.482 23.8746L375.98 25.411V24.4942L379.138 21.2603H380.029ZM376.32 21.2603V26.8624H375.641V21.2603H376.32ZM377.652 23.3314L380.054 26.8624H379.239L377.092 23.7133L377.652 23.3314ZM383.446 24.1208C383.446 23.8039 383.361 23.5605 383.191 23.3908C383.022 23.2154 382.781 23.1276 382.47 23.1276C382.176 23.1276 381.927 23.1927 381.723 23.3229C381.519 23.4474 381.369 23.6511 381.273 23.934L380.721 23.5945C380.835 23.2776 381.044 23.023 381.349 22.8306C381.655 22.6325 382.034 22.5335 382.487 22.5335C382.792 22.5335 383.07 22.5872 383.319 22.6948C383.568 22.7966 383.763 22.9551 383.904 23.1701C384.052 23.3795 384.125 23.6511 384.125 23.9849V26.0391C384.125 26.2428 384.233 26.3447 384.448 26.3447C384.555 26.3447 384.66 26.3305 384.762 26.3022L384.728 26.837C384.615 26.8935 384.467 26.9218 384.286 26.9218C384.122 26.9218 383.975 26.8907 383.845 26.8285C383.715 26.7662 383.613 26.6729 383.539 26.5484C383.466 26.4182 383.429 26.2569 383.429 26.0645V25.9797L383.599 26.0051C383.531 26.2258 383.415 26.4069 383.251 26.5484C383.087 26.6842 382.903 26.786 382.699 26.8539C382.495 26.9162 382.294 26.9473 382.096 26.9473C381.847 26.9473 381.615 26.9049 381.4 26.82C381.185 26.7351 381.013 26.6078 380.883 26.438C380.758 26.2626 380.696 26.0476 380.696 25.7929C380.696 25.476 380.801 25.2157 381.01 25.012C381.225 24.8026 381.522 24.6612 381.901 24.5876L383.582 24.2566V24.8168L382.215 25.0969C381.938 25.1535 381.731 25.2327 381.596 25.3346C381.46 25.4364 381.392 25.5779 381.392 25.759C381.392 25.9344 381.46 26.0787 381.596 26.1919C381.737 26.2994 381.935 26.3531 382.19 26.3531C382.354 26.3531 382.509 26.3333 382.657 26.2937C382.809 26.2485 382.945 26.1834 383.064 26.0985C383.183 26.008 383.276 25.8976 383.344 25.7675C383.412 25.6316 383.446 25.4732 383.446 25.2921V24.1208ZM386.611 21.413V25.6911C386.611 25.9004 386.67 26.0561 386.789 26.1579C386.908 26.2598 387.061 26.3107 387.248 26.3107C387.412 26.3107 387.553 26.2824 387.672 26.2258C387.791 26.1692 387.898 26.0928 387.995 25.9966L388.232 26.5653C388.102 26.6842 387.946 26.7775 387.765 26.8455C387.59 26.9134 387.386 26.9473 387.154 26.9473C386.939 26.9473 386.738 26.9105 386.552 26.837C386.365 26.7577 386.215 26.6361 386.102 26.472C385.994 26.3022 385.938 26.0815 385.932 25.8099V21.5998L386.611 21.413ZM388.156 22.6184V23.204H385.083V22.6184H388.156ZM390.94 26.9473C390.538 26.9473 390.178 26.8596 389.862 26.6842C389.55 26.5088 389.307 26.2569 389.132 25.9287C388.956 25.5949 388.868 25.1988 388.868 24.7404C388.868 24.282 388.956 23.8887 389.132 23.5605C389.307 23.2267 389.547 22.972 389.853 22.7966C390.159 22.6212 390.507 22.5335 390.897 22.5335C391.293 22.5335 391.63 22.6184 391.907 22.7881C392.19 22.9579 392.405 23.1899 392.552 23.4841C392.699 23.7727 392.773 24.0981 392.773 24.4603C392.773 24.5565 392.77 24.6442 392.764 24.7234C392.759 24.8026 392.75 24.8734 392.739 24.9356H389.31V24.333H392.442L392.094 24.4009C392.094 23.9934 391.981 23.6794 391.754 23.4587C391.534 23.238 391.242 23.1276 390.88 23.1276C390.603 23.1276 390.362 23.1927 390.159 23.3229C389.961 23.4474 389.805 23.6313 389.692 23.8746C389.584 24.1123 389.53 24.4009 389.53 24.7404C389.53 25.0743 389.587 25.3629 389.7 25.6062C389.813 25.8495 389.972 26.0362 390.176 26.1664C390.385 26.2909 390.634 26.3531 390.923 26.3531C391.234 26.3531 391.486 26.2937 391.678 26.1749C391.876 26.0561 392.034 25.8948 392.153 25.6911L392.688 26.0051C392.581 26.1975 392.442 26.3645 392.272 26.5059C392.108 26.6474 391.913 26.7577 391.686 26.837C391.466 26.9105 391.217 26.9473 390.94 26.9473Z" fill="#1B0F0F"/>
<path d="M648.431 23.3177L651.198 21.8925M648.431 24.4074L651.198 25.8325M648.557 23.8625C648.557 24.557 647.994 25.12 647.299 25.12C646.605 25.12 646.042 24.557 646.042 23.8625C646.042 23.168 646.605 22.605 647.299 22.605C647.994 22.605 648.557 23.168 648.557 23.8625ZM653.587 21.3476C653.587 22.0421 653.024 22.6051 652.329 22.6051C651.635 22.6051 651.072 22.0421 651.072 21.3476C651.072 20.6531 651.635 20.0901 652.329 20.0901C653.024 20.0901 653.587 20.6531 653.587 21.3476ZM653.587 26.3778C653.587 27.0723 653.024 27.6353 652.329 27.6353C651.635 27.6353 651.072 27.0723 651.072 26.3778C651.072 25.6833 651.635 25.1203 652.329 25.1203C653.024 25.1203 653.587 25.6833 653.587 26.3778Z" stroke="#1B0F0F" stroke-width="0.471563" stroke-linecap="round" stroke-linejoin="round"/>
</g>
</g>
<defs>
<filter id="filter0_d_743_4251" x="-0.943127" y="15.09" width="665.847" height="19.4313" filterUnits="userSpaceOnUse" color-interpolation-filters="sRGB">
<feFlood flood-opacity="0" result="BackgroundImageFix"/>
<feColorMatrix in="SourceAlpha" type="matrix" values="0 0 0 0 0 0 0 0 0 0 0 0 0 0 0 0 0 0 127 0" result="hardAlpha"/>
<feOffset dy="0.943127"/>
<feGaussianBlur stdDeviation="0.471563"/>
<feComposite in2="hardAlpha" operator="out"/>
<feColorMatrix type="matrix" values="0 0 0 0 0 0 0 0 0 0 0 0 0 0 0 0 0 0 0.05 0"/>
<feBlend mode="normal" in2="BackgroundImageFix" result="effect1_dropShadow_743_4251"/>
<feBlend mode="normal" in="SourceGraphic" in2="effect1_dropShadow_743_4251" result="shape"/>
</filter>
<clipPath id="clip0_743_4251">
<rect width="663.961" height="32.635" fill="white"/>
</clipPath>
</defs>
</svg>
