<svg width="1440" height="240" viewBox="0 0 1440 240" fill="none" xmlns="http://www.w3.org/2000/svg">
<path d="M632.542 154.841L633.006 156H617.248L617.712 154.841C620.492 154.687 621.96 153.567 621.574 149.859L618.33 118.383L610.606 147.928L611.841 152.601L607.439 156.116C607.091 156.386 606.589 156.579 606.241 156.579L595.968 118.383L593.921 141.556C593.419 147.349 593.535 154.494 597.783 154.841L598.247 156H585.772L586.236 154.841C588.823 154.687 590.639 153.567 590.986 149.859L593.728 120.16C594.114 116.337 592.608 114.792 589.905 114.676L589.441 113.517H601.452L609.563 143.95L617.441 113.517H629.646L629.182 114.676C626.286 114.792 624.702 115.95 625.127 119.658L628.178 149.821C628.68 153.567 630.186 154.687 632.542 154.841ZM658.087 154.841L658.55 156H649.359C649.204 154.108 649.204 152.447 649.204 150.361V149.473C647.621 154.185 644.145 156.579 641.132 156.579C637.348 156.579 634.451 154.108 634.451 149.628C634.451 144.916 638.081 142.251 641.673 139.663C645.149 137.076 648.548 134.372 648.548 129.931C648.548 128.348 647.505 127.15 645.767 127.15C643.141 127.15 641.519 128.927 641.519 131.36C641.519 132.789 642.252 134.295 644.068 134.759C643.295 135.879 641.982 136.883 640.399 136.883C638.12 136.883 636.421 135.454 636.421 132.982C636.421 128.657 641.248 125.297 645.728 125.297C651.212 125.297 655.229 127.73 655.229 134.836V151.366C655.229 153.914 656.349 154.687 658.087 154.841ZM643.527 152.949C646.269 152.949 649.204 148.623 649.204 142.097V133.716C648.2 136.497 646.501 138.659 644.801 140.552C642.523 143.101 640.592 145.379 640.592 148.739C640.592 151.597 641.75 152.949 643.527 152.949ZM660.041 156L660.505 154.841C662.243 154.687 663.363 153.914 663.363 151.366V118.538C663.363 116.028 662.629 115.062 660.505 114.676L659.964 113.517C664.444 113.517 667.032 112.552 668.152 110.428H669.388V151.366C669.388 153.914 670.508 154.687 672.246 154.841L672.709 156H660.041ZM680.584 120.778C678.344 120.778 676.645 119.079 676.645 116.8C676.645 114.599 678.305 112.938 680.584 112.938C682.824 112.938 684.485 114.599 684.485 116.8C684.485 119.079 682.824 120.778 680.584 120.778ZM674.366 156L674.83 154.841C676.568 154.687 677.688 153.914 677.688 151.366V133.407C677.688 130.897 676.954 129.931 674.83 129.545L674.289 128.386C678.769 128.386 681.357 127.421 682.477 125.297H683.712V151.366C683.712 153.914 684.832 154.687 686.57 154.841L687.034 156H674.366ZM704.388 125.297C709.524 125.297 713.077 131.321 713.077 140.088C713.077 149.859 708.829 156.579 702.611 156.579C699.714 156.579 697.397 155.112 695.273 152.061C693.844 152.447 692.608 154.108 692.415 156.386H690.948V118.538C690.948 116.028 690.214 115.062 688.09 114.676L687.549 113.517C692.029 113.517 694.617 112.552 695.737 110.428H696.972V131.09C698.401 127.73 701.375 125.297 704.388 125.297ZM701.8 154.764C704.735 154.764 706.666 149.666 706.666 141.517C706.666 133.484 704.851 128.811 701.916 128.811C699.29 128.811 696.972 132.634 696.972 137.037V146.036C696.972 151.134 698.981 154.764 701.8 154.764ZM738.348 148.353C738.348 151.713 739.353 152.37 741.554 152.177L741.284 153.451C738.194 153.721 734.757 154.61 734.1 156.386H732.555C732.439 154.61 732.362 152.91 732.324 150.748C730.47 154.223 727.264 156.579 723.866 156.579C719.888 156.579 717.493 153.76 717.493 149.048V132.248C717.493 128.618 716.682 128.116 715.06 127.807L714.481 126.687C718.69 126.687 721.162 126.494 722.282 125.297H723.518V148.16C723.518 151.211 724.561 152.64 726.762 152.64C729.775 152.64 732.324 149.357 732.324 145.263V132.248C732.324 128.618 731.513 128.116 729.89 127.807L729.311 126.687C733.521 126.687 735.993 126.494 737.113 125.297H738.348V148.353ZM786.929 113.517L786.466 114.676C784.573 114.83 782.797 115.873 781.792 119.465L771.79 155.73L767.232 156.579L756.882 119.465C755.878 115.873 754.101 114.83 752.209 114.676L751.746 113.517H767.31L766.846 114.676C764.027 114.83 762.907 115.873 763.872 119.503L771.635 148.778L777.467 127.498C779.012 121.898 780.402 114.946 775.652 114.676L775.15 113.517H786.929ZM793.131 120.778C790.891 120.778 789.192 119.079 789.192 116.8C789.192 114.599 790.852 112.938 793.131 112.938C795.371 112.938 797.032 114.599 797.032 116.8C797.032 119.079 795.371 120.778 793.131 120.778ZM786.913 156L787.376 154.841C789.114 154.687 790.234 153.914 790.234 151.366V133.407C790.234 130.897 789.501 129.931 787.376 129.545L786.836 128.386C791.316 128.386 793.903 127.421 795.023 125.297H796.259V151.366C796.259 153.914 797.379 154.687 799.117 154.841L799.581 156H786.913ZM801.135 156L801.599 154.841C803.337 154.687 804.457 153.914 804.457 151.366V118.538C804.457 116.028 803.723 115.062 801.599 114.676L801.058 113.517C805.538 113.517 808.126 112.552 809.246 110.428H810.481V151.366C810.481 153.914 811.601 154.687 813.339 154.841L813.803 156H801.135ZM815.846 156L816.31 154.841C818.048 154.687 819.168 153.914 819.168 151.366V118.538C819.168 116.028 818.434 115.062 816.31 114.676L815.769 113.517C820.249 113.517 822.836 112.552 823.956 110.428H825.192V151.366C825.192 153.914 826.312 154.687 828.05 154.841L828.514 156H815.846ZM854.196 154.841L854.66 156H845.468C845.314 154.108 845.314 152.447 845.314 150.361V149.473C843.73 154.185 840.254 156.579 837.242 156.579C833.457 156.579 830.56 154.108 830.56 149.628C830.56 144.916 834.191 142.251 837.783 139.663C841.258 137.076 844.657 134.372 844.657 129.931C844.657 128.348 843.614 127.15 841.876 127.15C839.25 127.15 837.628 128.927 837.628 131.36C837.628 132.789 838.362 134.295 840.177 134.759C839.405 135.879 838.091 136.883 836.508 136.883C834.229 136.883 832.53 135.454 832.53 132.982C832.53 128.657 837.358 125.297 841.838 125.297C847.322 125.297 851.338 127.73 851.338 134.836V151.366C851.338 153.914 852.458 154.687 854.196 154.841ZM839.636 152.949C842.378 152.949 845.314 148.623 845.314 142.097V133.716C844.309 136.497 842.61 138.659 840.911 140.552C838.632 143.101 836.701 145.379 836.701 148.739C836.701 151.597 837.86 152.949 839.636 152.949Z" fill="white"/>
<path d="M457.656 200L453.672 193.16H451.032V200H448.848V183.272H454.248C455.512 183.272 456.576 183.488 457.44 183.92C458.32 184.352 458.976 184.936 459.408 185.672C459.84 186.408 460.056 187.248 460.056 188.192C460.056 189.344 459.72 190.36 459.048 191.24C458.392 192.12 457.4 192.704 456.072 192.992L460.272 200H457.656ZM451.032 191.408H454.248C455.432 191.408 456.32 191.12 456.912 190.544C457.504 189.952 457.8 189.168 457.8 188.192C457.8 187.2 457.504 186.432 456.912 185.888C456.336 185.344 455.448 185.072 454.248 185.072H451.032V191.408ZM475.45 192.92C475.45 193.336 475.426 193.776 475.378 194.24H464.866C464.946 195.536 465.386 196.552 466.186 197.288C467.002 198.008 467.986 198.368 469.138 198.368C470.082 198.368 470.866 198.152 471.49 197.72C472.13 197.272 472.578 196.68 472.834 195.944H475.186C474.834 197.208 474.13 198.24 473.074 199.04C472.018 199.824 470.706 200.216 469.138 200.216C467.89 200.216 466.77 199.936 465.778 199.376C464.802 198.816 464.034 198.024 463.474 197C462.914 195.96 462.634 194.76 462.634 193.4C462.634 192.04 462.906 190.848 463.45 189.824C463.994 188.8 464.754 188.016 465.73 187.472C466.722 186.912 467.858 186.632 469.138 186.632C470.386 186.632 471.49 186.904 472.45 187.448C473.41 187.992 474.146 188.744 474.658 189.704C475.186 190.648 475.45 191.72 475.45 192.92ZM473.194 192.464C473.194 191.632 473.01 190.92 472.642 190.328C472.274 189.72 471.77 189.264 471.13 188.96C470.506 188.64 469.81 188.48 469.042 188.48C467.938 188.48 466.994 188.832 466.21 189.536C465.442 190.24 465.002 191.216 464.89 192.464H473.194ZM484.74 186.608C486.34 186.608 487.636 187.096 488.628 188.072C489.62 189.032 490.116 190.424 490.116 192.248V200H487.956V192.56C487.956 191.248 487.628 190.248 486.972 189.56C486.316 188.856 485.42 188.504 484.284 188.504C483.132 188.504 482.212 188.864 481.524 189.584C480.852 190.304 480.516 191.352 480.516 192.728V200H478.332V186.848H480.516V188.72C480.948 188.048 481.532 187.528 482.268 187.16C483.02 186.792 483.844 186.608 484.74 186.608ZM499.42 200.216C498.188 200.216 497.068 199.936 496.06 199.376C495.068 198.816 494.284 198.024 493.708 197C493.148 195.96 492.868 194.76 492.868 193.4C492.868 192.056 493.156 190.872 493.732 189.848C494.324 188.808 495.124 188.016 496.132 187.472C497.14 186.912 498.268 186.632 499.516 186.632C500.764 186.632 501.892 186.912 502.9 187.472C503.908 188.016 504.7 188.8 505.276 189.824C505.868 190.848 506.164 192.04 506.164 193.4C506.164 194.76 505.86 195.96 505.252 197C504.66 198.024 503.852 198.816 502.828 199.376C501.804 199.936 500.668 200.216 499.42 200.216ZM499.42 198.296C500.204 198.296 500.94 198.112 501.628 197.744C502.316 197.376 502.868 196.824 503.284 196.088C503.716 195.352 503.932 194.456 503.932 193.4C503.932 192.344 503.724 191.448 503.308 190.712C502.892 189.976 502.348 189.432 501.676 189.08C501.004 188.712 500.276 188.528 499.492 188.528C498.692 188.528 497.956 188.712 497.284 189.08C496.628 189.432 496.1 189.976 495.7 190.712C495.3 191.448 495.1 192.344 495.1 193.4C495.1 194.472 495.292 195.376 495.676 196.112C496.076 196.848 496.604 197.4 497.26 197.768C497.916 198.12 498.636 198.296 499.42 198.296ZM513.932 197.984L518.012 186.848H520.34L515.18 200H512.636L507.476 186.848H509.828L513.932 197.984ZM521.673 193.376C521.673 192.032 521.945 190.856 522.489 189.848C523.033 188.824 523.777 188.032 524.721 187.472C525.681 186.912 526.745 186.632 527.913 186.632C529.065 186.632 530.065 186.88 530.913 187.376C531.761 187.872 532.393 188.496 532.809 189.248V186.848H535.017V200H532.809V197.552C532.377 198.32 531.729 198.96 530.865 199.472C530.017 199.968 529.025 200.216 527.889 200.216C526.721 200.216 525.665 199.928 524.721 199.352C523.777 198.776 523.033 197.968 522.489 196.928C521.945 195.888 521.673 194.704 521.673 193.376ZM532.809 193.4C532.809 192.408 532.609 191.544 532.209 190.808C531.809 190.072 531.265 189.512 530.577 189.128C529.905 188.728 529.161 188.528 528.345 188.528C527.529 188.528 526.785 188.72 526.113 189.104C525.441 189.488 524.905 190.048 524.505 190.784C524.105 191.52 523.905 192.384 523.905 193.376C523.905 194.384 524.105 195.264 524.505 196.016C524.905 196.752 525.441 197.32 526.113 197.72C526.785 198.104 527.529 198.296 528.345 198.296C529.161 198.296 529.905 198.104 530.577 197.72C531.265 197.32 531.809 196.752 532.209 196.016C532.609 195.264 532.809 194.392 532.809 193.4ZM541.371 188.648V196.4C541.371 197.04 541.507 197.496 541.779 197.768C542.051 198.024 542.523 198.152 543.195 198.152H544.803V200H542.835C541.619 200 540.707 199.72 540.099 199.16C539.491 198.6 539.187 197.68 539.187 196.4V188.648H537.483V186.848H539.187V183.536H541.371V186.848H544.803V188.648H541.371ZM548.578 184.712C548.162 184.712 547.81 184.568 547.522 184.28C547.234 183.992 547.09 183.64 547.09 183.224C547.09 182.808 547.234 182.456 547.522 182.168C547.81 181.88 548.162 181.736 548.578 181.736C548.978 181.736 549.314 181.88 549.586 182.168C549.874 182.456 550.018 182.808 550.018 183.224C550.018 183.64 549.874 183.992 549.586 184.28C549.314 184.568 548.978 184.712 548.578 184.712ZM549.634 186.848V200H547.45V186.848H549.634ZM559.092 200.216C557.86 200.216 556.74 199.936 555.732 199.376C554.74 198.816 553.956 198.024 553.38 197C552.82 195.96 552.54 194.76 552.54 193.4C552.54 192.056 552.828 190.872 553.404 189.848C553.996 188.808 554.796 188.016 555.804 187.472C556.812 186.912 557.94 186.632 559.188 186.632C560.436 186.632 561.564 186.912 562.572 187.472C563.58 188.016 564.372 188.8 564.948 189.824C565.54 190.848 565.836 192.04 565.836 193.4C565.836 194.76 565.532 195.96 564.924 197C564.332 198.024 563.524 198.816 562.5 199.376C561.476 199.936 560.34 200.216 559.092 200.216ZM559.092 198.296C559.876 198.296 560.612 198.112 561.3 197.744C561.988 197.376 562.54 196.824 562.956 196.088C563.388 195.352 563.604 194.456 563.604 193.4C563.604 192.344 563.396 191.448 562.98 190.712C562.564 189.976 562.02 189.432 561.348 189.08C560.676 188.712 559.948 188.528 559.164 188.528C558.364 188.528 557.628 188.712 556.956 189.08C556.3 189.432 555.772 189.976 555.372 190.712C554.972 191.448 554.772 192.344 554.772 193.4C554.772 194.472 554.964 195.376 555.348 196.112C555.748 196.848 556.276 197.4 556.932 197.768C557.588 198.12 558.308 198.296 559.092 198.296ZM575.115 186.608C576.715 186.608 578.011 187.096 579.003 188.072C579.995 189.032 580.491 190.424 580.491 192.248V200H578.331V192.56C578.331 191.248 578.003 190.248 577.347 189.56C576.691 188.856 575.795 188.504 574.659 188.504C573.507 188.504 572.587 188.864 571.899 189.584C571.227 190.304 570.891 191.352 570.891 192.728V200H568.707V186.848H570.891V188.72C571.323 188.048 571.907 187.528 572.643 187.16C573.395 186.792 574.219 186.608 575.115 186.608ZM596.193 200.216C594.961 200.216 593.841 199.936 592.833 199.376C591.841 198.816 591.057 198.024 590.481 197C589.921 195.96 589.641 194.76 589.641 193.4C589.641 192.056 589.929 190.872 590.505 189.848C591.097 188.808 591.897 188.016 592.905 187.472C593.913 186.912 595.041 186.632 596.289 186.632C597.537 186.632 598.665 186.912 599.673 187.472C600.681 188.016 601.473 188.8 602.049 189.824C602.641 190.848 602.937 192.04 602.937 193.4C602.937 194.76 602.633 195.96 602.025 197C601.433 198.024 600.625 198.816 599.601 199.376C598.577 199.936 597.441 200.216 596.193 200.216ZM596.193 198.296C596.977 198.296 597.713 198.112 598.401 197.744C599.089 197.376 599.641 196.824 600.057 196.088C600.489 195.352 600.705 194.456 600.705 193.4C600.705 192.344 600.497 191.448 600.081 190.712C599.665 189.976 599.121 189.432 598.449 189.08C597.777 188.712 597.049 188.528 596.265 188.528C595.465 188.528 594.729 188.712 594.057 189.08C593.401 189.432 592.873 189.976 592.473 190.712C592.073 191.448 591.873 192.344 591.873 193.4C591.873 194.472 592.065 195.376 592.449 196.112C592.849 196.848 593.377 197.4 594.033 197.768C594.689 198.12 595.409 198.296 596.193 198.296ZM611.161 188.648H608.401V200H606.217V188.648H604.513V186.848H606.217V185.912C606.217 184.44 606.593 183.368 607.345 182.696C608.113 182.008 609.337 181.664 611.017 181.664V183.488C610.057 183.488 609.377 183.68 608.977 184.064C608.593 184.432 608.401 185.048 608.401 185.912V186.848H611.161V188.648ZM625.314 183.272C627.138 183.272 628.714 183.616 630.042 184.304C631.386 184.976 632.41 185.944 633.114 187.208C633.834 188.472 634.194 189.96 634.194 191.672C634.194 193.384 633.834 194.872 633.114 196.136C632.41 197.384 631.386 198.344 630.042 199.016C628.714 199.672 627.138 200 625.314 200H620.106V183.272H625.314ZM625.314 198.2C627.474 198.2 629.122 197.632 630.258 196.496C631.394 195.344 631.962 193.736 631.962 191.672C631.962 189.592 631.386 187.968 630.234 186.8C629.098 185.632 627.458 185.048 625.314 185.048H622.29V198.2H625.314ZM648.403 186.848L640.483 206.192H638.227L640.819 199.856L635.515 186.848H637.939L642.067 197.504L646.147 186.848H648.403ZM652.782 182.24V200H650.598V182.24H652.782ZM655.688 193.376C655.688 192.032 655.96 190.856 656.504 189.848C657.048 188.824 657.792 188.032 658.736 187.472C659.696 186.912 660.76 186.632 661.928 186.632C663.08 186.632 664.08 186.88 664.928 187.376C665.776 187.872 666.408 188.496 666.824 189.248V186.848H669.032V200H666.824V197.552C666.392 198.32 665.744 198.96 664.88 199.472C664.032 199.968 663.04 200.216 661.904 200.216C660.736 200.216 659.68 199.928 658.736 199.352C657.792 198.776 657.048 197.968 656.504 196.928C655.96 195.888 655.688 194.704 655.688 193.376ZM666.824 193.4C666.824 192.408 666.624 191.544 666.224 190.808C665.824 190.072 665.28 189.512 664.592 189.128C663.92 188.728 663.176 188.528 662.36 188.528C661.544 188.528 660.8 188.72 660.128 189.104C659.456 189.488 658.92 190.048 658.52 190.784C658.12 191.52 657.92 192.384 657.92 193.376C657.92 194.384 658.12 195.264 658.52 196.016C658.92 196.752 659.456 197.32 660.128 197.72C660.8 198.104 661.544 198.296 662.36 198.296C663.176 198.296 663.92 198.104 664.592 197.72C665.28 197.32 665.824 196.752 666.224 196.016C666.624 195.264 666.824 194.392 666.824 193.4ZM679.131 186.608C680.731 186.608 682.027 187.096 683.019 188.072C684.011 189.032 684.507 190.424 684.507 192.248V200H682.347V192.56C682.347 191.248 682.019 190.248 681.363 189.56C680.707 188.856 679.811 188.504 678.675 188.504C677.523 188.504 676.603 188.864 675.915 189.584C675.243 190.304 674.907 191.352 674.907 192.728V200H672.723V186.848H674.907V188.72C675.339 188.048 675.923 187.528 676.659 187.16C677.411 186.792 678.235 186.608 679.131 186.608ZM707.313 200L705.129 197.792C704.313 198.64 703.441 199.272 702.513 199.688C701.585 200.088 700.537 200.288 699.369 200.288C698.217 200.288 697.193 200.08 696.297 199.664C695.417 199.248 694.729 198.656 694.233 197.888C693.753 197.12 693.513 196.224 693.513 195.2C693.513 194.032 693.841 193.008 694.497 192.128C695.169 191.232 696.153 190.528 697.449 190.016C696.937 189.408 696.569 188.848 696.345 188.336C696.121 187.824 696.009 187.264 696.009 186.656C696.009 185.952 696.185 185.32 696.537 184.76C696.905 184.184 697.425 183.736 698.097 183.416C698.769 183.096 699.545 182.936 700.425 182.936C701.289 182.936 702.041 183.104 702.681 183.44C703.321 183.776 703.801 184.248 704.121 184.856C704.441 185.448 704.585 186.112 704.553 186.848H702.369C702.385 186.192 702.201 185.68 701.817 185.312C701.433 184.928 700.937 184.736 700.329 184.736C699.689 184.736 699.169 184.92 698.769 185.288C698.385 185.64 698.193 186.096 698.193 186.656C698.193 187.136 698.321 187.6 698.577 188.048C698.849 188.496 699.297 189.048 699.921 189.704L704.913 194.72L705.345 194.048L706.977 191.312H709.329L707.361 194.72C707.089 195.2 706.769 195.704 706.401 196.232L710.169 200H707.313ZM699.369 198.416C700.233 198.416 701.009 198.248 701.697 197.912C702.401 197.576 703.065 197.056 703.689 196.352L698.769 191.408C696.721 192.192 695.697 193.432 695.697 195.128C695.697 196.072 696.033 196.856 696.705 197.48C697.393 198.104 698.281 198.416 699.369 198.416ZM728.07 183.272V185.048H720.798V190.688H726.702V192.464H720.798V200H718.614V183.272H728.07ZM732.891 188.984C733.275 188.232 733.819 187.648 734.523 187.232C735.243 186.816 736.115 186.608 737.139 186.608V188.864H736.563C734.115 188.864 732.891 190.192 732.891 192.848V200H730.707V186.848H732.891V188.984ZM738.845 193.376C738.845 192.032 739.117 190.856 739.661 189.848C740.205 188.824 740.949 188.032 741.893 187.472C742.853 186.912 743.917 186.632 745.085 186.632C746.237 186.632 747.237 186.88 748.085 187.376C748.933 187.872 749.565 188.496 749.981 189.248V186.848H752.189V200H749.981V197.552C749.549 198.32 748.901 198.96 748.037 199.472C747.189 199.968 746.197 200.216 745.061 200.216C743.893 200.216 742.837 199.928 741.893 199.352C740.949 198.776 740.205 197.968 739.661 196.928C739.117 195.888 738.845 194.704 738.845 193.376ZM749.981 193.4C749.981 192.408 749.781 191.544 749.381 190.808C748.981 190.072 748.437 189.512 747.749 189.128C747.077 188.728 746.333 188.528 745.517 188.528C744.701 188.528 743.957 188.72 743.285 189.104C742.613 189.488 742.077 190.048 741.677 190.784C741.277 191.52 741.077 192.384 741.077 193.376C741.077 194.384 741.277 195.264 741.677 196.016C742.077 196.752 742.613 197.32 743.285 197.72C743.957 198.104 744.701 198.296 745.517 198.296C746.333 198.296 747.077 198.104 747.749 197.72C748.437 197.32 748.981 196.752 749.381 196.016C749.781 195.264 749.981 194.392 749.981 193.4ZM762.287 186.608C763.887 186.608 765.183 187.096 766.175 188.072C767.167 189.032 767.663 190.424 767.663 192.248V200H765.503V192.56C765.503 191.248 765.175 190.248 764.519 189.56C763.863 188.856 762.967 188.504 761.831 188.504C760.679 188.504 759.759 188.864 759.071 189.584C758.399 190.304 758.063 191.352 758.063 192.728V200H755.879V186.848H758.063V188.72C758.495 188.048 759.079 187.528 759.815 187.16C760.567 186.792 761.391 186.608 762.287 186.608ZM778.575 200L773.415 194.192V200H771.231V182.24H773.415V192.68L778.479 186.848H781.527L775.335 193.4L781.551 200H778.575ZM784.71 184.712C784.294 184.712 783.942 184.568 783.654 184.28C783.366 183.992 783.222 183.64 783.222 183.224C783.222 182.808 783.366 182.456 783.654 182.168C783.942 181.88 784.294 181.736 784.71 181.736C785.11 181.736 785.446 181.88 785.718 182.168C786.006 182.456 786.15 182.808 786.15 183.224C786.15 183.64 786.006 183.992 785.718 184.28C785.446 184.568 785.11 184.712 784.71 184.712ZM785.766 186.848V200H783.582V186.848H785.766ZM801.489 192.92C801.489 193.336 801.465 193.776 801.417 194.24H790.905C790.985 195.536 791.425 196.552 792.225 197.288C793.041 198.008 794.025 198.368 795.177 198.368C796.121 198.368 796.905 198.152 797.529 197.72C798.169 197.272 798.617 196.68 798.873 195.944H801.225C800.873 197.208 800.169 198.24 799.113 199.04C798.057 199.824 796.745 200.216 795.177 200.216C793.929 200.216 792.809 199.936 791.817 199.376C790.841 198.816 790.073 198.024 789.513 197C788.953 195.96 788.673 194.76 788.673 193.4C788.673 192.04 788.945 190.848 789.489 189.824C790.033 188.8 790.793 188.016 791.769 187.472C792.761 186.912 793.897 186.632 795.177 186.632C796.425 186.632 797.529 186.904 798.489 187.448C799.449 187.992 800.185 188.744 800.697 189.704C801.225 190.648 801.489 191.72 801.489 192.92ZM799.233 192.464C799.233 191.632 799.049 190.92 798.681 190.328C798.313 189.72 797.809 189.264 797.169 188.96C796.545 188.64 795.849 188.48 795.081 188.48C793.977 188.48 793.033 188.832 792.249 189.536C791.481 190.24 791.041 191.216 790.929 192.464H799.233ZM804.707 183.272H807.131L804.827 188.72H803.291L804.707 183.272ZM814.277 200.216C813.269 200.216 812.365 200.048 811.565 199.712C810.765 199.36 810.133 198.88 809.669 198.272C809.205 197.648 808.949 196.936 808.901 196.136H811.157C811.221 196.792 811.525 197.328 812.069 197.744C812.629 198.16 813.357 198.368 814.253 198.368C815.085 198.368 815.741 198.184 816.221 197.816C816.701 197.448 816.941 196.984 816.941 196.424C816.941 195.848 816.685 195.424 816.173 195.152C815.661 194.864 814.869 194.584 813.797 194.312C812.821 194.056 812.021 193.8 811.397 193.544C810.789 193.272 810.261 192.88 809.813 192.368C809.381 191.84 809.165 191.152 809.165 190.304C809.165 189.632 809.365 189.016 809.765 188.456C810.165 187.896 810.733 187.456 811.469 187.136C812.205 186.8 813.045 186.632 813.989 186.632C815.445 186.632 816.621 187 817.517 187.736C818.413 188.472 818.893 189.48 818.957 190.76H816.773C816.725 190.072 816.445 189.52 815.933 189.104C815.437 188.688 814.765 188.48 813.917 188.48C813.133 188.48 812.509 188.648 812.045 188.984C811.581 189.32 811.349 189.76 811.349 190.304C811.349 190.736 811.485 191.096 811.757 191.384C812.045 191.656 812.397 191.88 812.813 192.056C813.245 192.216 813.837 192.4 814.589 192.608C815.533 192.864 816.301 193.12 816.893 193.376C817.485 193.616 817.989 193.984 818.405 194.48C818.837 194.976 819.061 195.624 819.077 196.424C819.077 197.144 818.877 197.792 818.477 198.368C818.077 198.944 817.509 199.4 816.773 199.736C816.053 200.056 815.221 200.216 814.277 200.216ZM827.743 193.4C827.743 192.04 828.015 190.856 828.559 189.848C829.103 188.824 829.855 188.032 830.815 187.472C831.791 186.912 832.903 186.632 834.151 186.632C835.767 186.632 837.095 187.024 838.135 187.808C839.191 188.592 839.887 189.68 840.223 191.072H837.871C837.647 190.272 837.207 189.64 836.551 189.176C835.911 188.712 835.111 188.48 834.151 188.48C832.903 188.48 831.895 188.912 831.127 189.776C830.359 190.624 829.975 191.832 829.975 193.4C829.975 194.984 830.359 196.208 831.127 197.072C831.895 197.936 832.903 198.368 834.151 198.368C835.111 198.368 835.911 198.144 836.551 197.696C837.191 197.248 837.631 196.608 837.871 195.776H840.223C839.871 197.12 839.167 198.2 838.111 199.016C837.055 199.816 835.735 200.216 834.151 200.216C832.903 200.216 831.791 199.936 830.815 199.376C829.855 198.816 829.103 198.024 828.559 197C828.015 195.976 827.743 194.776 827.743 193.4ZM848.873 200.216C847.641 200.216 846.521 199.936 845.513 199.376C844.521 198.816 843.737 198.024 843.161 197C842.601 195.96 842.321 194.76 842.321 193.4C842.321 192.056 842.609 190.872 843.185 189.848C843.777 188.808 844.577 188.016 845.585 187.472C846.593 186.912 847.721 186.632 848.969 186.632C850.217 186.632 851.345 186.912 852.353 187.472C853.361 188.016 854.153 188.8 854.729 189.824C855.321 190.848 855.617 192.04 855.617 193.4C855.617 194.76 855.313 195.96 854.705 197C854.113 198.024 853.305 198.816 852.281 199.376C851.257 199.936 850.121 200.216 848.873 200.216ZM848.873 198.296C849.657 198.296 850.393 198.112 851.081 197.744C851.769 197.376 852.321 196.824 852.737 196.088C853.169 195.352 853.385 194.456 853.385 193.4C853.385 192.344 853.177 191.448 852.761 190.712C852.345 189.976 851.801 189.432 851.129 189.08C850.457 188.712 849.729 188.528 848.945 188.528C848.145 188.528 847.409 188.712 846.737 189.08C846.081 189.432 845.553 189.976 845.153 190.712C844.753 191.448 844.553 192.344 844.553 193.4C844.553 194.472 844.745 195.376 845.129 196.112C845.529 196.848 846.057 197.4 846.713 197.768C847.369 198.12 848.089 198.296 848.873 198.296ZM857.673 193.376C857.673 192.032 857.945 190.856 858.489 189.848C859.033 188.824 859.777 188.032 860.721 187.472C861.681 186.912 862.745 186.632 863.913 186.632C865.065 186.632 866.065 186.88 866.913 187.376C867.761 187.872 868.393 188.496 868.809 189.248V186.848H871.017V200H868.809V197.552C868.377 198.32 867.729 198.96 866.865 199.472C866.017 199.968 865.025 200.216 863.889 200.216C862.721 200.216 861.665 199.928 860.721 199.352C859.777 198.776 859.033 197.968 858.489 196.928C857.945 195.888 857.673 194.704 857.673 193.376ZM868.809 193.4C868.809 192.408 868.609 191.544 868.209 190.808C867.809 190.072 867.265 189.512 866.577 189.128C865.905 188.728 865.161 188.528 864.345 188.528C863.529 188.528 862.785 188.72 862.113 189.104C861.441 189.488 860.905 190.048 860.505 190.784C860.105 191.52 859.905 192.384 859.905 193.376C859.905 194.384 860.105 195.264 860.505 196.016C860.905 196.752 861.441 197.32 862.113 197.72C862.785 198.104 863.529 198.296 864.345 198.296C865.161 198.296 865.905 198.104 866.577 197.72C867.265 197.32 867.809 196.752 868.209 196.016C868.609 195.264 868.809 194.392 868.809 193.4ZM879.363 200.216C878.355 200.216 877.451 200.048 876.651 199.712C875.851 199.36 875.219 198.88 874.755 198.272C874.291 197.648 874.035 196.936 873.987 196.136H876.243C876.307 196.792 876.611 197.328 877.155 197.744C877.715 198.16 878.443 198.368 879.339 198.368C880.171 198.368 880.827 198.184 881.307 197.816C881.787 197.448 882.027 196.984 882.027 196.424C882.027 195.848 881.771 195.424 881.259 195.152C880.747 194.864 879.955 194.584 878.883 194.312C877.907 194.056 877.107 193.8 876.483 193.544C875.875 193.272 875.347 192.88 874.899 192.368C874.467 191.84 874.251 191.152 874.251 190.304C874.251 189.632 874.451 189.016 874.851 188.456C875.251 187.896 875.819 187.456 876.555 187.136C877.291 186.8 878.131 186.632 879.075 186.632C880.531 186.632 881.707 187 882.603 187.736C883.499 188.472 883.979 189.48 884.043 190.76H881.859C881.811 190.072 881.531 189.52 881.019 189.104C880.523 188.688 879.851 188.48 879.003 188.48C878.219 188.48 877.595 188.648 877.131 188.984C876.667 189.32 876.435 189.76 876.435 190.304C876.435 190.736 876.571 191.096 876.843 191.384C877.131 191.656 877.483 191.88 877.899 192.056C878.331 192.216 878.923 192.4 879.675 192.608C880.619 192.864 881.387 193.12 881.979 193.376C882.571 193.616 883.075 193.984 883.491 194.48C883.923 194.976 884.147 195.624 884.163 196.424C884.163 197.144 883.963 197.792 883.563 198.368C883.163 198.944 882.595 199.4 881.859 199.736C881.139 200.056 880.307 200.216 879.363 200.216ZM889.91 188.648V196.4C889.91 197.04 890.046 197.496 890.318 197.768C890.59 198.024 891.062 198.152 891.734 198.152H893.342V200H891.374C890.158 200 889.246 199.72 888.638 199.16C888.03 198.6 887.726 197.68 887.726 196.4V188.648H886.022V186.848H887.726V183.536H889.91V186.848H893.342V188.648H889.91ZM895.173 193.376C895.173 192.032 895.445 190.856 895.989 189.848C896.533 188.824 897.277 188.032 898.221 187.472C899.181 186.912 900.245 186.632 901.413 186.632C902.565 186.632 903.565 186.88 904.413 187.376C905.261 187.872 905.893 188.496 906.309 189.248V186.848H908.517V200H906.309V197.552C905.877 198.32 905.229 198.96 904.365 199.472C903.517 199.968 902.525 200.216 901.389 200.216C900.221 200.216 899.165 199.928 898.221 199.352C897.277 198.776 896.533 197.968 895.989 196.928C895.445 195.888 895.173 194.704 895.173 193.376ZM906.309 193.4C906.309 192.408 906.109 191.544 905.709 190.808C905.309 190.072 904.765 189.512 904.077 189.128C903.405 188.728 902.661 188.528 901.845 188.528C901.029 188.528 900.285 188.72 899.613 189.104C898.941 189.488 898.405 190.048 898.005 190.784C897.605 191.52 897.405 192.384 897.405 193.376C897.405 194.384 897.605 195.264 898.005 196.016C898.405 196.752 898.941 197.32 899.613 197.72C900.285 198.104 901.029 198.296 901.845 198.296C902.661 198.296 903.405 198.104 904.077 197.72C904.765 197.32 905.309 196.752 905.709 196.016C906.109 195.264 906.309 194.392 906.309 193.4ZM914.391 182.24V200H912.207V182.24H914.391ZM931.04 186.608C932.032 186.608 932.928 186.824 933.728 187.256C934.528 187.672 935.152 188.304 935.6 189.152C936.064 190 936.296 191.032 936.296 192.248V200H934.136V192.56C934.136 191.248 933.808 190.248 933.152 189.56C932.496 188.856 931.6 188.504 930.464 188.504C929.312 188.504 928.392 188.864 927.704 189.584C927.032 190.304 926.696 191.352 926.696 192.728V200H924.512V182.24H926.696V188.72C927.128 188.048 927.72 187.528 928.472 187.16C929.24 186.792 930.096 186.608 931.04 186.608ZM945.6 200.216C944.368 200.216 943.248 199.936 942.24 199.376C941.248 198.816 940.464 198.024 939.888 197C939.328 195.96 939.048 194.76 939.048 193.4C939.048 192.056 939.336 190.872 939.912 189.848C940.504 188.808 941.304 188.016 942.312 187.472C943.32 186.912 944.448 186.632 945.696 186.632C946.944 186.632 948.072 186.912 949.08 187.472C950.088 188.016 950.88 188.8 951.456 189.824C952.048 190.848 952.344 192.04 952.344 193.4C952.344 194.76 952.04 195.96 951.432 197C950.84 198.024 950.032 198.816 949.008 199.376C947.984 199.936 946.848 200.216 945.6 200.216ZM945.6 198.296C946.384 198.296 947.12 198.112 947.808 197.744C948.496 197.376 949.048 196.824 949.464 196.088C949.896 195.352 950.112 194.456 950.112 193.4C950.112 192.344 949.904 191.448 949.488 190.712C949.072 189.976 948.528 189.432 947.856 189.08C947.184 188.712 946.456 188.528 945.672 188.528C944.872 188.528 944.136 188.712 943.464 189.08C942.808 189.432 942.28 189.976 941.88 190.712C941.48 191.448 941.28 192.344 941.28 193.4C941.28 194.472 941.472 195.376 941.856 196.112C942.256 196.848 942.784 197.4 943.44 197.768C944.096 198.12 944.816 198.296 945.6 198.296ZM971.031 186.608C972.055 186.608 972.967 186.824 973.767 187.256C974.567 187.672 975.199 188.304 975.663 189.152C976.127 190 976.359 191.032 976.359 192.248V200H974.199V192.56C974.199 191.248 973.871 190.248 973.215 189.56C972.575 188.856 971.703 188.504 970.599 188.504C969.463 188.504 968.559 188.872 967.887 189.608C967.215 190.328 966.879 191.376 966.879 192.752V200H964.719V192.56C964.719 191.248 964.391 190.248 963.735 189.56C963.095 188.856 962.223 188.504 961.119 188.504C959.983 188.504 959.079 188.872 958.407 189.608C957.735 190.328 957.399 191.376 957.399 192.752V200H955.215V186.848H957.399V188.744C957.831 188.056 958.407 187.528 959.127 187.16C959.863 186.792 960.671 186.608 961.551 186.608C962.655 186.608 963.631 186.856 964.479 187.352C965.327 187.848 965.959 188.576 966.375 189.536C966.743 188.608 967.351 187.888 968.199 187.376C969.047 186.864 969.991 186.608 971.031 186.608ZM991.942 192.92C991.942 193.336 991.918 193.776 991.87 194.24H981.358C981.438 195.536 981.878 196.552 982.678 197.288C983.494 198.008 984.478 198.368 985.63 198.368C986.574 198.368 987.358 198.152 987.982 197.72C988.622 197.272 989.07 196.68 989.326 195.944H991.678C991.326 197.208 990.622 198.24 989.566 199.04C988.51 199.824 987.198 200.216 985.63 200.216C984.382 200.216 983.262 199.936 982.27 199.376C981.294 198.816 980.526 198.024 979.966 197C979.406 195.96 979.126 194.76 979.126 193.4C979.126 192.04 979.398 190.848 979.942 189.824C980.486 188.8 981.246 188.016 982.222 187.472C983.214 186.912 984.35 186.632 985.63 186.632C986.878 186.632 987.982 186.904 988.942 187.448C989.902 187.992 990.638 188.744 991.15 189.704C991.678 190.648 991.942 191.72 991.942 192.92ZM989.686 192.464C989.686 191.632 989.502 190.92 989.134 190.328C988.766 189.72 988.262 189.264 987.622 188.96C986.998 188.64 986.302 188.48 985.534 188.48C984.43 188.48 983.486 188.832 982.702 189.536C981.934 190.24 981.494 191.216 981.382 192.464H989.686Z" fill="#E7E7E7"/>
</svg>
