<svg width="4070" height="466" viewBox="0 0 4070 466" fill="none" xmlns="http://www.w3.org/2000/svg">
<path d="M187.51 227.668H176.003L166.527 202.895H126.052L116.576 227.668H105.205L139.995 138.324H152.855L187.51 227.668ZM129.978 192.743H162.602L146.222 148.748L129.978 192.743ZM285.726 159.983H297.097L268.941 227.668H258.111L229.954 159.983H242.273L263.661 216.703L285.726 159.983ZM339.54 229.022C333.132 229.022 327.402 227.623 322.348 224.825C317.384 222.028 313.504 218.012 310.706 212.777C307.909 207.453 306.51 201.136 306.51 193.826C306.51 186.516 307.909 180.244 310.706 175.009C313.504 169.685 317.339 165.624 322.213 162.826C327.086 160.028 332.636 158.63 338.863 158.63C345.18 158.63 350.55 159.983 354.972 162.691C359.484 165.398 362.914 169.098 365.26 173.791C367.606 178.394 368.78 183.583 368.78 189.358C368.78 190.893 368.734 192.291 368.644 193.555C368.554 194.818 368.419 195.946 368.238 196.939H313.549V187.328H363.5L357.95 188.411C357.95 181.913 356.145 176.905 352.535 173.385C349.016 169.865 344.368 168.106 338.592 168.106C334.17 168.106 330.335 169.143 327.086 171.219C323.927 173.204 321.445 176.137 319.641 180.018C317.926 183.808 317.068 188.411 317.068 193.826C317.068 199.15 317.971 203.753 319.776 207.633C321.581 211.514 324.108 214.492 327.357 216.568C330.696 218.553 334.666 219.546 339.269 219.546C344.233 219.546 348.249 218.598 351.317 216.703C354.476 214.808 357.002 212.236 358.898 208.987L367.426 213.996C365.711 217.064 363.5 219.726 360.793 221.982C358.176 224.239 355.062 225.998 351.452 227.262C347.933 228.435 343.962 229.022 339.54 229.022ZM389.376 227.668V159.983H398.175L399.664 171.084C401.559 166.932 404.311 163.819 407.921 161.743C411.621 159.668 416.089 158.63 421.323 158.63C422.496 158.63 423.76 158.72 425.113 158.9C426.557 159.081 427.775 159.442 428.768 159.983L426.873 169.865C425.88 169.504 424.797 169.234 423.624 169.053C422.451 168.873 420.781 168.782 418.615 168.782C415.818 168.782 412.975 169.595 410.087 171.219C407.29 172.843 404.943 175.325 403.048 178.664C401.153 181.913 400.205 186.065 400.205 191.118V227.668H389.376ZM466.092 229.022C459.504 229.022 453.412 227.623 447.817 224.825C442.312 222.028 438.071 218.057 435.092 212.913L444.298 206.28C446.283 210.431 449.171 213.68 452.961 216.026C456.842 218.373 461.489 219.546 466.904 219.546C471.687 219.546 475.432 218.643 478.14 216.838C480.847 214.943 482.201 212.507 482.201 209.528C482.201 207.633 481.569 205.919 480.306 204.384C479.133 202.76 476.831 201.587 473.402 200.865L457.158 197.481C450.57 196.127 445.832 193.871 442.944 190.712C440.146 187.554 438.747 183.628 438.747 178.935C438.747 175.235 439.785 171.851 441.861 168.782C444.027 165.714 447.05 163.277 450.931 161.472C454.901 159.577 459.549 158.63 464.874 158.63C471.552 158.63 477.192 159.938 481.795 162.555C486.397 165.173 489.827 168.873 492.083 173.656L483.013 179.612C481.479 175.641 478.997 172.753 475.568 170.948C472.138 169.053 468.574 168.106 464.874 168.106C461.625 168.106 458.827 168.557 456.481 169.459C454.225 170.362 452.465 171.625 451.201 173.25C450.028 174.784 449.442 176.544 449.442 178.529C449.442 180.514 450.118 182.364 451.472 184.079C452.826 185.704 455.353 186.877 459.053 187.599L475.974 191.118C482.291 192.382 486.713 194.457 489.24 197.345C491.767 200.233 493.03 203.753 493.03 207.904C493.03 212.146 491.902 215.891 489.646 219.14C487.39 222.298 484.231 224.735 480.17 226.45C476.109 228.164 471.417 229.022 466.092 229.022ZM552.639 183.944C552.639 178.89 551.286 175.009 548.578 172.302C545.871 169.504 542.035 168.106 537.072 168.106C532.379 168.106 528.408 169.143 525.159 171.219C521.911 173.204 519.519 176.453 517.985 180.966L509.186 175.551C510.991 170.497 514.33 166.436 519.203 163.368C524.077 160.209 530.123 158.63 537.343 158.63C542.216 158.63 546.638 159.487 550.609 161.202C554.58 162.826 557.693 165.353 559.949 168.782C562.296 172.121 563.469 176.453 563.469 181.778V214.537C563.469 217.786 565.184 219.41 568.613 219.41C570.328 219.41 571.997 219.185 573.622 218.734L573.08 227.262C571.275 228.164 568.929 228.616 566.041 228.616C563.424 228.616 561.077 228.119 559.002 227.126C556.926 226.134 555.302 224.645 554.128 222.659C552.955 220.584 552.369 218.012 552.369 214.943V213.59L555.076 213.996C553.993 217.515 552.143 220.403 549.526 222.659C546.909 224.825 543.976 226.45 540.727 227.533C537.478 228.525 534.274 229.022 531.116 229.022C527.145 229.022 523.445 228.345 520.015 226.991C516.586 225.637 513.834 223.607 511.758 220.9C509.773 218.102 508.78 214.673 508.78 210.611C508.78 205.558 510.449 201.406 513.788 198.157C517.218 194.818 521.956 192.562 528.002 191.389L554.805 186.11V195.044L533.011 199.511C528.589 200.414 525.295 201.677 523.129 203.302C520.963 204.926 519.88 207.182 519.88 210.07C519.88 212.868 520.963 215.169 523.129 216.974C525.385 218.688 528.544 219.546 532.605 219.546C535.222 219.546 537.704 219.23 540.05 218.598C542.487 217.876 544.653 216.838 546.548 215.485C548.443 214.041 549.932 212.281 551.015 210.205C552.098 208.039 552.639 205.513 552.639 202.625V183.944ZM603.115 140.761V208.987C603.115 212.326 604.063 214.808 605.958 216.432C607.853 218.057 610.29 218.869 613.268 218.869C615.885 218.869 618.141 218.418 620.036 217.515C621.932 216.613 623.646 215.394 625.18 213.86L628.971 222.93C626.895 224.825 624.413 226.314 621.525 227.397C618.728 228.48 615.479 229.022 611.779 229.022C608.349 229.022 605.146 228.435 602.168 227.262C599.189 225.998 596.798 224.058 594.993 221.441C593.278 218.734 592.376 215.214 592.286 210.882V143.739L603.115 140.761ZM627.752 159.983V169.324H578.749V159.983H627.752ZM649.269 146.988C646.832 146.988 644.847 146.266 643.312 144.822C641.869 143.288 641.147 141.302 641.147 138.866C641.147 136.429 641.869 134.489 643.312 133.045C644.847 131.511 646.832 130.744 649.269 130.744C651.705 130.744 653.646 131.511 655.09 133.045C656.624 134.489 657.391 136.429 657.391 138.866C657.391 141.302 656.624 143.288 655.09 144.822C653.646 146.266 651.705 146.988 649.269 146.988ZM654.683 159.983V227.668H643.854V159.983H654.683ZM690.099 128.848V210.476C690.099 213.905 690.731 216.297 691.995 217.651C693.258 218.914 695.289 219.546 698.086 219.546C699.891 219.546 701.38 219.41 702.553 219.14C703.727 218.869 705.306 218.373 707.291 217.651L705.532 227.126C704.088 227.758 702.508 228.209 700.794 228.48C699.079 228.841 697.319 229.022 695.514 229.022C690.009 229.022 685.903 227.533 683.196 224.554C680.578 221.576 679.27 217.019 679.27 210.882V128.848H690.099ZM749.481 229.022C743.074 229.022 737.343 227.623 732.289 224.825C727.326 222.028 723.445 218.012 720.647 212.777C717.85 207.453 716.451 201.136 716.451 193.826C716.451 186.516 717.85 180.244 720.647 175.009C723.445 169.685 727.28 165.624 732.154 162.826C737.027 160.028 742.577 158.63 748.804 158.63C755.121 158.63 760.491 159.983 764.913 162.691C769.425 165.398 772.855 169.098 775.201 173.791C777.548 178.394 778.721 183.583 778.721 189.358C778.721 190.893 778.676 192.291 778.585 193.555C778.495 194.818 778.36 195.946 778.179 196.939H723.49V187.328H773.441L767.891 188.411C767.891 181.913 766.086 176.905 762.476 173.385C758.957 169.865 754.309 168.106 748.533 168.106C744.111 168.106 740.276 169.143 737.027 171.219C733.868 173.204 731.387 176.137 729.582 180.018C727.867 183.808 727.01 188.411 727.01 193.826C727.01 199.15 727.912 203.753 729.717 207.633C731.522 211.514 734.049 214.492 737.298 216.568C740.637 218.553 744.608 219.546 749.21 219.546C754.174 219.546 758.19 218.598 761.258 216.703C764.417 214.808 766.944 212.236 768.839 208.987L777.367 213.996C775.652 217.064 773.441 219.726 770.734 221.982C768.117 224.239 765.003 225.998 761.394 227.262C757.874 228.435 753.903 229.022 749.481 229.022ZM884.981 183.944C884.981 178.89 883.628 175.009 880.92 172.302C878.213 169.504 874.377 168.106 869.414 168.106C864.721 168.106 860.75 169.143 857.501 171.219C854.253 173.204 851.861 176.453 850.327 180.966L841.528 175.551C843.333 170.497 846.672 166.436 851.545 163.368C856.418 160.209 862.465 158.63 869.685 158.63C874.558 158.63 878.98 159.487 882.951 161.202C886.922 162.826 890.035 165.353 892.291 168.782C894.638 172.121 895.811 176.453 895.811 181.778V214.537C895.811 217.786 897.526 219.41 900.955 219.41C902.67 219.41 904.339 219.185 905.964 218.734L905.422 227.262C903.617 228.164 901.271 228.616 898.383 228.616C895.766 228.616 893.419 228.119 891.344 227.126C889.268 226.134 887.644 224.645 886.47 222.659C885.297 220.584 884.711 218.012 884.711 214.943V213.59L887.418 213.996C886.335 217.515 884.485 220.403 881.868 222.659C879.251 224.825 876.318 226.45 873.069 227.533C869.82 228.525 866.616 229.022 863.458 229.022C859.487 229.022 855.787 228.345 852.357 226.991C848.928 225.637 846.176 223.607 844.1 220.9C842.114 218.102 841.122 214.673 841.122 210.611C841.122 205.558 842.791 201.406 846.13 198.157C849.56 194.818 854.298 192.562 860.344 191.389L887.147 186.11V195.044L865.353 199.511C860.931 200.414 857.637 201.677 855.471 203.302C853.305 204.926 852.222 207.182 852.222 210.07C852.222 212.868 853.305 215.169 855.471 216.974C857.727 218.688 860.886 219.546 864.947 219.546C867.564 219.546 870.046 219.23 872.392 218.598C874.829 217.876 876.995 216.838 878.89 215.485C880.785 214.041 882.274 212.281 883.357 210.205C884.44 208.039 884.981 205.513 884.981 202.625V183.944ZM922.127 227.668V159.983H931.603L932.551 175.145L930.791 173.656C932.235 170.046 934.175 167.158 936.612 164.992C939.049 162.736 941.846 161.111 945.005 160.119C948.254 159.126 951.593 158.63 955.022 158.63C959.895 158.63 964.318 159.577 968.288 161.472C972.259 163.277 975.418 166.075 977.764 169.865C980.201 173.656 981.419 178.484 981.419 184.35V227.668H970.59V188.14C970.59 180.65 968.965 175.461 965.716 172.573C962.558 169.595 958.632 168.106 953.939 168.106C950.69 168.106 947.442 168.873 944.193 170.407C940.944 171.941 938.236 174.423 936.071 177.852C933.995 181.281 932.957 185.884 932.957 191.66V227.668H922.127ZM1032.34 229.022C1026.74 229.022 1021.6 227.623 1016.9 224.825C1012.21 222.028 1008.47 218.012 1005.67 212.777C1002.87 207.453 1001.47 201.136 1001.47 193.826C1001.47 186.335 1002.96 179.973 1005.94 174.739C1008.92 169.504 1012.84 165.534 1017.72 162.826C1022.59 160.028 1027.82 158.63 1033.42 158.63C1039.02 158.63 1043.84 160.074 1047.9 162.961C1052.06 165.849 1054.81 169.685 1056.16 174.468L1054.81 175.415V128.848H1065.64V227.668H1056.16L1055.21 211.288L1056.7 210.476C1056.07 214.447 1054.54 217.831 1052.1 220.629C1049.75 223.336 1046.82 225.412 1043.3 226.856C1039.87 228.3 1036.22 229.022 1032.34 229.022ZM1033.42 219.546C1037.75 219.546 1041.5 218.463 1044.66 216.297C1047.9 214.131 1050.39 211.063 1052.1 207.092C1053.91 203.031 1054.81 198.293 1054.81 192.878C1054.81 187.734 1053.91 183.312 1052.1 179.612C1050.39 175.912 1047.95 173.069 1044.79 171.084C1041.72 169.098 1038.11 168.106 1033.96 168.106C1027.1 168.106 1021.78 170.452 1017.99 175.145C1014.2 179.838 1012.3 186.065 1012.3 193.826C1012.3 201.587 1014.15 207.814 1017.85 212.507C1021.55 217.199 1026.74 219.546 1033.42 219.546ZM1136.95 227.668V159.983H1146.42L1147.1 170.542C1149.54 166.391 1152.69 163.368 1156.58 161.472C1160.55 159.577 1164.61 158.63 1168.76 158.63C1173.54 158.63 1178.05 159.713 1182.3 161.879C1186.54 164.044 1189.79 167.384 1192.04 171.896C1193.49 168.827 1195.52 166.346 1198.13 164.451C1200.75 162.465 1203.59 161.021 1206.66 160.119C1209.82 159.126 1212.8 158.63 1215.6 158.63C1219.93 158.63 1224.03 159.532 1227.91 161.337C1231.89 163.142 1235.13 165.94 1237.66 169.73C1240.19 173.52 1241.45 178.394 1241.45 184.35V227.668H1230.62V185.433C1230.62 179.296 1229.09 174.874 1226.02 172.167C1222.95 169.459 1219.16 168.106 1214.65 168.106C1211.13 168.106 1207.84 168.963 1204.77 170.678C1201.7 172.392 1199.22 174.919 1197.32 178.258C1195.52 181.597 1194.61 185.704 1194.61 190.577V227.668H1183.78V185.433C1183.78 179.296 1182.25 174.874 1179.18 172.167C1176.11 169.459 1172.32 168.106 1167.81 168.106C1164.83 168.106 1161.76 168.918 1158.61 170.542C1155.54 172.076 1152.97 174.558 1150.89 177.987C1148.81 181.417 1147.78 185.929 1147.78 191.524V227.668H1136.95ZM1271.39 146.988C1268.95 146.988 1266.96 146.266 1265.43 144.822C1263.99 143.288 1263.26 141.302 1263.26 138.866C1263.26 136.429 1263.99 134.489 1265.43 133.045C1266.96 131.511 1268.95 130.744 1271.39 130.744C1273.82 130.744 1275.76 131.511 1277.21 133.045C1278.74 134.489 1279.51 136.429 1279.51 138.866C1279.51 141.302 1278.74 143.288 1277.21 144.822C1275.76 146.266 1273.82 146.988 1271.39 146.988ZM1276.8 159.983V227.668H1265.97V159.983H1276.8ZM1301.93 227.668V159.983H1311.4L1312.35 175.145L1310.59 173.656C1312.04 170.046 1313.98 167.158 1316.41 164.992C1318.85 162.736 1321.65 161.111 1324.81 160.119C1328.05 159.126 1331.39 158.63 1334.82 158.63C1339.7 158.63 1344.12 159.577 1348.09 161.472C1352.06 163.277 1355.22 166.075 1357.56 169.865C1360 173.656 1361.22 178.484 1361.22 184.35V227.668H1350.39V188.14C1350.39 180.65 1348.77 175.461 1345.52 172.573C1342.36 169.595 1338.43 168.106 1333.74 168.106C1330.49 168.106 1327.24 168.873 1323.99 170.407C1320.74 171.941 1318.04 174.423 1315.87 177.852C1313.8 181.281 1312.76 185.884 1312.76 191.66V227.668H1301.93ZM1412.14 229.022C1406.54 229.022 1401.4 227.623 1396.71 224.825C1392.01 222.028 1388.27 218.012 1385.47 212.777C1382.67 207.453 1381.27 201.136 1381.27 193.826C1381.27 186.335 1382.76 179.973 1385.74 174.739C1388.72 169.504 1392.64 165.534 1397.52 162.826C1402.39 160.028 1407.63 158.63 1413.22 158.63C1418.82 158.63 1423.64 160.074 1427.71 162.961C1431.86 165.849 1434.61 169.685 1435.96 174.468L1434.61 175.415V128.848H1445.44V227.668H1435.96L1435.01 211.288L1436.5 210.476C1435.87 214.447 1434.34 217.831 1431.9 220.629C1429.56 223.336 1426.62 225.412 1423.1 226.856C1419.67 228.3 1416.02 229.022 1412.14 229.022ZM1413.22 219.546C1417.55 219.546 1421.3 218.463 1424.46 216.297C1427.71 214.131 1430.19 211.063 1431.9 207.092C1433.71 203.031 1434.61 198.293 1434.61 192.878C1434.61 187.734 1433.71 183.312 1431.9 179.612C1430.19 175.912 1427.75 173.069 1424.59 171.084C1421.52 169.098 1417.91 168.106 1413.76 168.106C1406.9 168.106 1401.58 170.452 1397.79 175.145C1394 179.838 1392.1 186.065 1392.1 193.826C1392.1 201.587 1393.95 207.814 1397.65 212.507C1401.35 217.199 1406.54 219.546 1413.22 219.546ZM1498.09 128.172C1500.44 128.172 1502.65 128.442 1504.72 128.984C1506.8 129.525 1508.42 130.292 1509.6 131.285L1506.75 140.084C1505.67 139.362 1504.5 138.866 1503.23 138.595C1501.97 138.234 1500.57 138.054 1499.04 138.054C1495.16 138.054 1492.13 139.001 1489.97 140.896C1487.8 142.701 1486.72 145.634 1486.72 149.695V159.983V163.503V227.668H1475.89V148.612C1475.89 145.634 1476.34 142.882 1477.24 140.355C1478.15 137.828 1479.5 135.662 1481.3 133.857C1483.2 132.052 1485.55 130.653 1488.34 129.661C1491.14 128.668 1494.39 128.172 1498.09 128.172ZM1509.33 159.983V169.324H1462.35V159.983H1509.33ZM1548.26 229.022C1543.92 229.022 1539.82 228.209 1535.94 226.585C1532.15 224.961 1529.03 222.343 1526.6 218.734C1524.25 215.034 1523.08 210.25 1523.08 204.384V159.983H1533.91V201.542C1533.91 208.4 1535.4 213.138 1538.37 215.755C1541.35 218.282 1545.55 219.546 1550.96 219.546C1553.49 219.546 1555.97 219.14 1558.41 218.327C1560.84 217.425 1563.01 216.071 1564.91 214.266C1566.89 212.371 1568.43 209.98 1569.51 207.092C1570.68 204.204 1571.27 200.775 1571.27 196.804V159.983H1582.1V227.668H1572.62L1571.95 217.38C1569.6 221.441 1566.39 224.419 1562.33 226.314C1558.36 228.119 1553.67 229.022 1548.26 229.022ZM1617.59 128.848V210.476C1617.59 213.905 1618.22 216.297 1619.49 217.651C1620.75 218.914 1622.78 219.546 1625.58 219.546C1627.38 219.546 1628.87 219.41 1630.04 219.14C1631.22 218.869 1632.8 218.373 1634.78 217.651L1633.02 227.126C1631.58 227.758 1630 228.209 1628.28 228.48C1626.57 228.841 1624.81 229.022 1623 229.022C1617.5 229.022 1613.39 227.533 1610.69 224.554C1608.07 221.576 1606.76 217.019 1606.76 210.882V128.848H1617.59ZM1714.42 229.022C1707.84 229.022 1701.74 227.623 1696.15 224.825C1690.64 222.028 1686.4 218.057 1683.42 212.913L1692.63 206.28C1694.61 210.431 1697.5 213.68 1701.29 216.026C1705.17 218.373 1709.82 219.546 1715.24 219.546C1720.02 219.546 1723.76 218.643 1726.47 216.838C1729.18 214.943 1730.53 212.507 1730.53 209.528C1730.53 207.633 1729.9 205.919 1728.64 204.384C1727.46 202.76 1725.16 201.587 1721.73 200.865L1705.49 197.481C1698.9 196.127 1694.16 193.871 1691.28 190.712C1688.48 187.554 1687.08 183.628 1687.08 178.935C1687.08 175.235 1688.12 171.851 1690.19 168.782C1692.36 165.714 1695.38 163.277 1699.26 161.472C1703.23 159.577 1707.88 158.63 1713.2 158.63C1719.88 158.63 1725.52 159.938 1730.13 162.555C1734.73 165.173 1738.16 168.873 1740.41 173.656L1731.34 179.612C1729.81 175.641 1727.33 172.753 1723.9 170.948C1720.47 169.053 1716.91 168.106 1713.2 168.106C1709.96 168.106 1707.16 168.557 1704.81 169.459C1702.56 170.362 1700.8 171.625 1699.53 173.25C1698.36 174.784 1697.77 176.544 1697.77 178.529C1697.77 180.514 1698.45 182.364 1699.8 184.079C1701.16 185.704 1703.68 186.877 1707.38 187.599L1724.31 191.118C1730.62 192.382 1735.04 194.457 1737.57 197.345C1740.1 200.233 1741.36 203.753 1741.36 207.904C1741.36 212.146 1740.23 215.891 1737.98 219.14C1735.72 222.298 1732.56 224.735 1728.5 226.45C1724.44 228.164 1719.75 229.022 1714.42 229.022ZM1761.44 256.095V159.983H1770.92L1771.87 176.498L1770.38 174.603C1771.55 171.445 1773.31 168.692 1775.66 166.346C1778 163.909 1780.85 162.014 1784.18 160.66C1787.52 159.307 1791.13 158.63 1795.01 158.63C1800.52 158.63 1805.57 160.028 1810.18 162.826C1814.87 165.624 1818.61 169.64 1821.41 174.874C1824.21 180.108 1825.61 186.425 1825.61 193.826C1825.61 201.136 1824.16 207.453 1821.28 212.777C1818.48 218.012 1814.73 222.028 1810.04 224.825C1805.35 227.623 1800.2 229.022 1794.61 229.022C1789.01 229.022 1784.09 227.668 1779.85 224.961C1775.7 222.163 1772.72 218.643 1770.92 214.402L1772.27 212.371V256.095H1761.44ZM1793.53 219.546C1800.2 219.546 1805.39 217.199 1809.09 212.507C1812.88 207.814 1814.78 201.587 1814.78 193.826C1814.78 186.065 1812.93 179.838 1809.23 175.145C1805.62 170.452 1800.52 168.106 1793.93 168.106C1789.6 168.106 1785.81 169.188 1782.56 171.354C1779.31 173.43 1776.78 176.408 1774.98 180.289C1773.17 184.079 1772.27 188.591 1772.27 193.826C1772.27 198.97 1773.13 203.482 1774.84 207.363C1776.65 211.243 1779.13 214.266 1782.29 216.432C1785.54 218.508 1789.28 219.546 1793.53 219.546ZM1885.84 183.944C1885.84 178.89 1884.49 175.009 1881.78 172.302C1879.07 169.504 1875.24 168.106 1870.27 168.106C1865.58 168.106 1861.61 169.143 1858.36 171.219C1855.11 173.204 1852.72 176.453 1851.19 180.966L1842.39 175.551C1844.19 170.497 1847.53 166.436 1852.4 163.368C1857.28 160.209 1863.32 158.63 1870.54 158.63C1875.42 158.63 1879.84 159.487 1883.81 161.202C1887.78 162.826 1890.89 165.353 1893.15 168.782C1895.5 172.121 1896.67 176.453 1896.67 181.778V214.537C1896.67 217.786 1898.39 219.41 1901.81 219.41C1903.53 219.41 1905.2 219.185 1906.82 218.734L1906.28 227.262C1904.48 228.164 1902.13 228.616 1899.24 228.616C1896.63 228.616 1894.28 228.119 1892.2 227.126C1890.13 226.134 1888.5 224.645 1887.33 222.659C1886.16 220.584 1885.57 218.012 1885.57 214.943V213.59L1888.28 213.996C1887.19 217.515 1885.34 220.403 1882.73 222.659C1880.11 224.825 1877.18 226.45 1873.93 227.533C1870.68 228.525 1867.48 229.022 1864.32 229.022C1860.35 229.022 1856.65 228.345 1853.22 226.991C1849.79 225.637 1847.04 223.607 1844.96 220.9C1842.97 218.102 1841.98 214.673 1841.98 210.611C1841.98 205.558 1843.65 201.406 1846.99 198.157C1850.42 194.818 1855.16 192.562 1861.2 191.389L1888.01 186.11V195.044L1866.21 199.511C1861.79 200.414 1858.5 201.677 1856.33 203.302C1854.16 204.926 1853.08 207.182 1853.08 210.07C1853.08 212.868 1854.16 215.169 1856.33 216.974C1858.59 218.688 1861.75 219.546 1865.81 219.546C1868.42 219.546 1870.91 219.23 1873.25 218.598C1875.69 217.876 1877.85 216.838 1879.75 215.485C1881.64 214.041 1883.13 212.281 1884.22 210.205C1885.3 208.039 1885.84 205.513 1885.84 202.625V183.944ZM1951.01 158.63C1955.7 158.63 1959.81 159.352 1963.33 160.796C1966.94 162.24 1970.05 164.315 1972.67 167.023C1975.28 169.73 1977.41 172.934 1979.03 176.634L1968.74 181.507C1967.3 177.175 1965.09 173.881 1962.11 171.625C1959.22 169.279 1955.43 168.106 1950.74 168.106C1946.23 168.106 1942.34 169.143 1939.1 171.219C1935.85 173.204 1933.37 176.137 1931.65 180.018C1929.94 183.808 1929.08 188.411 1929.08 193.826C1929.08 199.15 1929.94 203.753 1931.65 207.633C1933.37 211.514 1935.85 214.492 1939.1 216.568C1942.34 218.553 1946.23 219.546 1950.74 219.546C1954.26 219.546 1957.28 219.004 1959.81 217.921C1962.42 216.838 1964.55 215.259 1966.17 213.183C1967.88 211.108 1969.06 208.581 1969.69 205.603L1979.71 209.122C1978.17 213.274 1976.05 216.838 1973.34 219.817C1970.73 222.795 1967.52 225.096 1963.73 226.72C1960.03 228.255 1955.79 229.022 1951.01 229.022C1944.69 229.022 1939.05 227.623 1934.09 224.825C1929.12 222.028 1925.24 218.012 1922.45 212.777C1919.65 207.453 1918.25 201.136 1918.25 193.826C1918.25 186.516 1919.65 180.244 1922.45 175.009C1925.24 169.685 1929.12 165.624 1934.09 162.826C1939.05 160.028 1944.69 158.63 1951.01 158.63ZM2027.03 229.022C2020.62 229.022 2014.89 227.623 2009.84 224.825C2004.87 222.028 2000.99 218.012 1998.19 212.777C1995.4 207.453 1994 201.136 1994 193.826C1994 186.516 1995.4 180.244 1998.19 175.009C2000.99 169.685 2004.83 165.624 2009.7 162.826C2014.57 160.028 2020.12 158.63 2026.35 158.63C2032.67 158.63 2038.04 159.983 2042.46 162.691C2046.97 165.398 2050.4 169.098 2052.75 173.791C2055.09 178.394 2056.27 183.583 2056.27 189.358C2056.27 190.893 2056.22 192.291 2056.13 193.555C2056.04 194.818 2055.91 195.946 2055.73 196.939H2001.04V187.328H2050.99L2045.44 188.411C2045.44 181.913 2043.63 176.905 2040.02 173.385C2036.5 169.865 2031.86 168.106 2026.08 168.106C2021.66 168.106 2017.82 169.143 2014.57 171.219C2011.42 173.204 2008.93 176.137 2007.13 180.018C2005.41 183.808 2004.56 188.411 2004.56 193.826C2004.56 199.15 2005.46 203.753 2007.26 207.633C2009.07 211.514 2011.6 214.492 2014.84 216.568C2018.18 218.553 2022.15 219.546 2026.76 219.546C2031.72 219.546 2035.74 218.598 2038.8 216.703C2041.96 214.808 2044.49 212.236 2046.39 208.987L2054.91 213.996C2053.2 217.064 2050.99 219.726 2048.28 221.982C2045.66 224.239 2042.55 225.998 2038.94 227.262C2035.42 228.435 2031.45 229.022 2027.03 229.022ZM2147.97 128.172C2150.31 128.172 2152.53 128.442 2154.6 128.984C2156.68 129.525 2158.3 130.292 2159.47 131.285L2156.63 140.084C2155.55 139.362 2154.38 138.866 2153.11 138.595C2151.85 138.234 2150.45 138.054 2148.92 138.054C2145.04 138.054 2142.01 139.001 2139.85 140.896C2137.68 142.701 2136.6 145.634 2136.6 149.695V159.983V163.503V227.668H2125.77V148.612C2125.77 145.634 2126.22 142.882 2127.12 140.355C2128.02 137.828 2129.38 135.662 2131.18 133.857C2133.08 132.052 2135.42 130.653 2138.22 129.661C2141.02 128.668 2144.27 128.172 2147.97 128.172ZM2159.2 159.983V169.324H2112.23V159.983H2159.2ZM2199.8 158.63C2206.21 158.63 2211.85 160.028 2216.72 162.826C2221.69 165.624 2225.57 169.685 2228.37 175.009C2231.16 180.244 2232.56 186.516 2232.56 193.826C2232.56 201.136 2231.16 207.453 2228.37 212.777C2225.57 218.012 2221.69 222.028 2216.72 224.825C2211.85 227.623 2206.21 229.022 2199.8 229.022C2193.48 229.022 2187.84 227.623 2182.88 224.825C2177.92 222.028 2174.04 218.012 2171.24 212.777C2168.44 207.453 2167.04 201.136 2167.04 193.826C2167.04 186.516 2168.44 180.244 2171.24 175.009C2174.04 169.685 2177.92 165.624 2182.88 162.826C2187.84 160.028 2193.48 158.63 2199.8 158.63ZM2199.8 167.97C2195.2 167.97 2191.27 169.008 2188.03 171.084C2184.78 173.159 2182.25 176.137 2180.44 180.018C2178.73 183.808 2177.87 188.411 2177.87 193.826C2177.87 199.15 2178.73 203.753 2180.44 207.633C2182.25 211.514 2184.78 214.492 2188.03 216.568C2191.27 218.643 2195.2 219.681 2199.8 219.681C2204.4 219.681 2208.33 218.643 2211.58 216.568C2214.83 214.492 2217.31 211.514 2219.02 207.633C2220.83 203.753 2221.73 199.15 2221.73 193.826C2221.73 188.411 2220.83 183.808 2219.02 180.018C2217.31 176.137 2214.83 173.159 2211.58 171.084C2208.33 169.008 2204.4 167.97 2199.8 167.97ZM2252.95 227.668V159.983H2261.75L2263.24 171.084C2265.13 166.932 2267.89 163.819 2271.5 161.743C2275.2 159.668 2279.66 158.63 2284.9 158.63C2286.07 158.63 2287.33 158.72 2288.69 158.9C2290.13 159.081 2291.35 159.442 2292.34 159.983L2290.45 169.865C2289.45 169.504 2288.37 169.234 2287.2 169.053C2286.02 168.873 2284.36 168.782 2282.19 168.782C2279.39 168.782 2276.55 169.595 2273.66 171.219C2270.86 172.843 2268.52 175.325 2266.62 178.664C2264.73 181.913 2263.78 186.065 2263.78 191.118V227.668H2252.95ZM2379.19 158.63C2383.89 158.63 2387.99 159.352 2391.51 160.796C2395.12 162.24 2398.23 164.315 2400.85 167.023C2403.47 169.73 2405.59 172.934 2407.21 176.634L2396.93 181.507C2395.48 177.175 2393.27 173.881 2390.29 171.625C2387.41 169.279 2383.61 168.106 2378.92 168.106C2374.41 168.106 2370.53 169.143 2367.28 171.219C2364.03 173.204 2361.55 176.137 2359.83 180.018C2358.12 183.808 2357.26 188.411 2357.26 193.826C2357.26 199.15 2358.12 203.753 2359.83 207.633C2361.55 211.514 2364.03 214.492 2367.28 216.568C2370.53 218.553 2374.41 219.546 2378.92 219.546C2382.44 219.546 2385.46 219.004 2387.99 217.921C2390.61 216.838 2392.73 215.259 2394.35 213.183C2396.07 211.108 2397.24 208.581 2397.87 205.603L2407.89 209.122C2406.36 213.274 2404.24 216.838 2401.53 219.817C2398.91 222.795 2395.71 225.096 2391.92 226.72C2388.22 228.255 2383.98 229.022 2379.19 229.022C2372.88 229.022 2367.24 227.623 2362.27 224.825C2357.31 222.028 2353.43 218.012 2350.63 212.777C2347.83 207.453 2346.43 201.136 2346.43 193.826C2346.43 186.516 2347.83 180.244 2350.63 175.009C2353.43 169.685 2357.31 165.624 2362.27 162.826C2367.24 160.028 2372.88 158.63 2379.19 158.63ZM2426.92 227.668V159.983H2435.72L2437.21 171.084C2439.1 166.932 2441.86 163.819 2445.47 161.743C2449.17 159.668 2453.63 158.63 2458.87 158.63C2460.04 158.63 2461.3 158.72 2462.66 158.9C2464.1 159.081 2465.32 159.442 2466.31 159.983L2464.42 169.865C2463.42 169.504 2462.34 169.234 2461.17 169.053C2460 168.873 2458.33 168.782 2456.16 168.782C2453.36 168.782 2450.52 169.595 2447.63 171.219C2444.83 172.843 2442.49 175.325 2440.59 178.664C2438.7 181.913 2437.75 186.065 2437.75 191.118V227.668H2426.92ZM2508.36 229.022C2501.95 229.022 2496.22 227.623 2491.16 224.825C2486.2 222.028 2482.32 218.012 2479.52 212.777C2476.72 207.453 2475.33 201.136 2475.33 193.826C2475.33 186.516 2476.72 180.244 2479.52 175.009C2482.32 169.685 2486.15 165.624 2491.03 162.826C2495.9 160.028 2501.45 158.63 2507.68 158.63C2514 158.63 2519.37 159.983 2523.79 162.691C2528.3 165.398 2531.73 169.098 2534.08 173.791C2536.42 178.394 2537.59 183.583 2537.59 189.358C2537.59 190.893 2537.55 192.291 2537.46 193.555C2537.37 194.818 2537.23 195.946 2537.05 196.939H2482.36V187.328H2532.32L2526.77 188.411C2526.77 181.913 2524.96 176.905 2521.35 173.385C2517.83 169.865 2513.18 168.106 2507.41 168.106C2502.99 168.106 2499.15 169.143 2495.9 171.219C2492.74 173.204 2490.26 176.137 2488.46 180.018C2486.74 183.808 2485.88 188.411 2485.88 193.826C2485.88 199.15 2486.79 203.753 2488.59 207.633C2490.4 211.514 2492.92 214.492 2496.17 216.568C2499.51 218.553 2503.48 219.546 2508.08 219.546C2513.05 219.546 2517.06 218.598 2520.13 216.703C2523.29 214.808 2525.82 212.236 2527.71 208.987L2536.24 213.996C2534.53 217.064 2532.32 219.726 2529.61 221.982C2526.99 224.239 2523.88 225.998 2520.27 227.262C2516.75 228.435 2512.78 229.022 2508.36 229.022ZM2597.72 183.944C2597.72 178.89 2596.37 175.009 2593.66 172.302C2590.95 169.504 2587.12 168.106 2582.15 168.106C2577.46 168.106 2573.49 169.143 2570.24 171.219C2566.99 173.204 2564.6 176.453 2563.06 180.966L2554.27 175.551C2556.07 170.497 2559.41 166.436 2564.28 163.368C2569.16 160.209 2575.2 158.63 2582.42 158.63C2587.3 158.63 2591.72 159.487 2595.69 161.202C2599.66 162.826 2602.77 165.353 2605.03 168.782C2607.38 172.121 2608.55 176.453 2608.55 181.778V214.537C2608.55 217.786 2610.26 219.41 2613.69 219.41C2615.41 219.41 2617.08 219.185 2618.7 218.734L2618.16 227.262C2616.35 228.164 2614.01 228.616 2611.12 228.616C2608.5 228.616 2606.16 228.119 2604.08 227.126C2602.01 226.134 2600.38 224.645 2599.21 222.659C2598.03 220.584 2597.45 218.012 2597.45 214.943V213.59L2600.16 213.996C2599.07 217.515 2597.22 220.403 2594.61 222.659C2591.99 224.825 2589.06 226.45 2585.81 227.533C2582.56 228.525 2579.35 229.022 2576.2 229.022C2572.22 229.022 2568.52 228.345 2565.09 226.991C2561.67 225.637 2558.91 223.607 2556.84 220.9C2554.85 218.102 2553.86 214.673 2553.86 210.611C2553.86 205.558 2555.53 201.406 2558.87 198.157C2562.3 194.818 2567.04 192.562 2573.08 191.389L2599.88 186.11V195.044L2578.09 199.511C2573.67 200.414 2570.37 201.677 2568.21 203.302C2566.04 204.926 2564.96 207.182 2564.96 210.07C2564.96 212.868 2566.04 215.169 2568.21 216.974C2570.46 218.688 2573.62 219.546 2577.68 219.546C2580.3 219.546 2582.78 219.23 2585.13 218.598C2587.57 217.876 2589.73 216.838 2591.63 215.485C2593.52 214.041 2595.01 212.281 2596.09 210.205C2597.18 208.039 2597.72 205.513 2597.72 202.625V183.944ZM2648.19 140.761V208.987C2648.19 212.326 2649.14 214.808 2651.04 216.432C2652.93 218.057 2655.37 218.869 2658.35 218.869C2660.96 218.869 2663.22 218.418 2665.12 217.515C2667.01 216.613 2668.73 215.394 2670.26 213.86L2674.05 222.93C2671.97 224.825 2669.49 226.314 2666.6 227.397C2663.81 228.48 2660.56 229.022 2656.86 229.022C2653.43 229.022 2650.23 228.435 2647.25 227.262C2644.27 225.998 2641.88 224.058 2640.07 221.441C2638.36 218.734 2637.46 215.214 2637.37 210.882V143.739L2648.19 140.761ZM2672.83 159.983V169.324H2623.83V159.983H2672.83ZM2694.35 146.988C2691.91 146.988 2689.93 146.266 2688.39 144.822C2686.95 143.288 2686.23 141.302 2686.23 138.866C2686.23 136.429 2686.95 134.489 2688.39 133.045C2689.93 131.511 2691.91 130.744 2694.35 130.744C2696.78 130.744 2698.73 131.511 2700.17 133.045C2701.7 134.489 2702.47 136.429 2702.47 138.866C2702.47 141.302 2701.7 143.288 2700.17 144.822C2698.73 146.266 2696.78 146.988 2694.35 146.988ZM2699.76 159.983V227.668H2688.93V159.983H2699.76ZM2769.7 159.983H2781.07L2752.91 227.668H2742.08L2713.93 159.983H2726.24L2747.63 216.703L2769.7 159.983ZM2823.51 229.022C2817.1 229.022 2811.37 227.623 2806.32 224.825C2801.36 222.028 2797.48 218.012 2794.68 212.777C2791.88 207.453 2790.48 201.136 2790.48 193.826C2790.48 186.516 2791.88 180.244 2794.68 175.009C2797.48 169.685 2801.31 165.624 2806.18 162.826C2811.06 160.028 2816.61 158.63 2822.83 158.63C2829.15 158.63 2834.52 159.983 2838.94 162.691C2843.46 165.398 2846.89 169.098 2849.23 173.791C2851.58 178.394 2852.75 183.583 2852.75 189.358C2852.75 190.893 2852.71 192.291 2852.62 193.555C2852.53 194.818 2852.39 195.946 2852.21 196.939H2797.52V187.328H2847.47L2841.92 188.411C2841.92 181.913 2840.12 176.905 2836.51 173.385C2832.99 169.865 2828.34 168.106 2822.56 168.106C2818.14 168.106 2814.31 169.143 2811.06 171.219C2807.9 173.204 2805.42 176.137 2803.61 180.018C2801.9 183.808 2801.04 188.411 2801.04 193.826C2801.04 199.15 2801.94 203.753 2803.75 207.633C2805.55 211.514 2808.08 214.492 2811.33 216.568C2814.67 218.553 2818.64 219.546 2823.24 219.546C2828.2 219.546 2832.22 218.598 2835.29 216.703C2838.45 214.808 2840.97 212.236 2842.87 208.987L2851.4 213.996C2849.68 217.064 2847.47 219.726 2844.76 221.982C2842.15 224.239 2839.03 225.998 2835.42 227.262C2831.9 228.435 2827.93 229.022 2823.51 229.022ZM3001.32 159.983H3013.37L2989.81 227.668H2978.98L2959.9 173.791L2941.89 227.668H2931.06L2907.51 159.983H2919.56L2936.61 215.079L2955.02 159.983H2965.85L2984.26 215.079L3001.32 159.983ZM3055.51 158.63C3061.92 158.63 3067.56 160.028 3072.43 162.826C3077.39 165.624 3081.28 169.685 3084.07 175.009C3086.87 180.244 3088.27 186.516 3088.27 193.826C3088.27 201.136 3086.87 207.453 3084.07 212.777C3081.28 218.012 3077.39 222.028 3072.43 224.825C3067.56 227.623 3061.92 229.022 3055.51 229.022C3049.19 229.022 3043.55 227.623 3038.59 224.825C3033.63 222.028 3029.74 218.012 3026.95 212.777C3024.15 207.453 3022.75 201.136 3022.75 193.826C3022.75 186.516 3024.15 180.244 3026.95 175.009C3029.74 169.685 3033.63 165.624 3038.59 162.826C3043.55 160.028 3049.19 158.63 3055.51 158.63ZM3055.51 167.97C3050.91 167.97 3046.98 169.008 3043.73 171.084C3040.48 173.159 3037.96 176.137 3036.15 180.018C3034.44 183.808 3033.58 188.411 3033.58 193.826C3033.58 199.15 3034.44 203.753 3036.15 207.633C3037.96 211.514 3040.48 214.492 3043.73 216.568C3046.98 218.643 3050.91 219.681 3055.51 219.681C3060.11 219.681 3064.04 218.643 3067.29 216.568C3070.54 214.492 3073.02 211.514 3074.73 207.633C3076.54 203.753 3077.44 199.15 3077.44 193.826C3077.44 188.411 3076.54 183.808 3074.73 180.018C3073.02 176.137 3070.54 173.159 3067.29 171.084C3064.04 169.008 3060.11 167.97 3055.51 167.97ZM3108.66 227.668V159.983H3117.46L3118.95 171.084C3120.84 166.932 3123.59 163.819 3127.2 161.743C3130.9 159.668 3135.37 158.63 3140.6 158.63C3141.78 158.63 3143.04 158.72 3144.39 158.9C3145.84 159.081 3147.06 159.442 3148.05 159.983L3146.15 169.865C3145.16 169.504 3144.08 169.234 3142.91 169.053C3141.73 168.873 3140.06 168.782 3137.9 168.782C3135.1 168.782 3132.26 169.595 3129.37 171.219C3126.57 172.843 3124.22 175.325 3122.33 178.664C3120.43 181.913 3119.49 186.065 3119.49 191.118V227.668H3108.66ZM3223.34 159.983L3194.1 189.223L3191.53 191.795L3169.33 213.996V200.459L3209.67 159.983H3223.34ZM3174.74 128.848V227.668H3163.92V128.848H3174.74ZM3195.05 183.673L3224.97 227.668H3211.84L3185.98 189.765L3195.05 183.673ZM3297.15 140.761V208.987C3297.15 212.326 3298.09 214.808 3299.99 216.432C3301.89 218.057 3304.32 218.869 3307.3 218.869C3309.92 218.869 3312.17 218.418 3314.07 217.515C3315.96 216.613 3317.68 215.394 3319.21 213.86L3323 222.93C3320.93 224.825 3318.45 226.314 3315.56 227.397C3312.76 228.48 3309.51 229.022 3305.81 229.022C3302.38 229.022 3299.18 228.435 3296.2 227.262C3293.22 225.998 3290.83 224.058 3289.02 221.441C3287.31 218.734 3286.41 215.214 3286.32 210.882V143.739L3297.15 140.761ZM3321.78 159.983V169.324H3272.78V159.983H3321.78ZM3365.91 158.63C3372.31 158.63 3377.96 160.028 3382.83 162.826C3387.79 165.624 3391.67 169.685 3394.47 175.009C3397.27 180.244 3398.67 186.516 3398.67 193.826C3398.67 201.136 3397.27 207.453 3394.47 212.777C3391.67 218.012 3387.79 222.028 3382.83 224.825C3377.96 227.623 3372.31 229.022 3365.91 229.022C3359.59 229.022 3353.95 227.623 3348.99 224.825C3344.02 222.028 3340.14 218.012 3337.34 212.777C3334.55 207.453 3333.15 201.136 3333.15 193.826C3333.15 186.516 3334.55 180.244 3337.34 175.009C3340.14 169.685 3344.02 165.624 3348.99 162.826C3353.95 160.028 3359.59 158.63 3365.91 158.63ZM3365.91 167.97C3361.3 167.97 3357.38 169.008 3354.13 171.084C3350.88 173.159 3348.35 176.137 3346.55 180.018C3344.83 183.808 3343.98 188.411 3343.98 193.826C3343.98 199.15 3344.83 203.753 3346.55 207.633C3348.35 211.514 3350.88 214.492 3354.13 216.568C3357.38 218.643 3361.3 219.681 3365.91 219.681C3370.51 219.681 3374.44 218.643 3377.68 216.568C3380.93 214.492 3383.41 211.514 3385.13 207.633C3386.93 203.753 3387.84 199.15 3387.84 193.826C3387.84 188.411 3386.93 183.808 3385.13 180.018C3383.41 176.137 3380.93 173.159 3377.68 171.084C3374.44 169.008 3370.51 167.97 3365.91 167.97ZM3490.16 128.172C3492.51 128.172 3494.72 128.442 3496.79 128.984C3498.87 129.525 3500.49 130.292 3501.67 131.285L3498.82 140.084C3497.74 139.362 3496.57 138.866 3495.3 138.595C3494.04 138.234 3492.64 138.054 3491.11 138.054C3487.23 138.054 3484.2 139.001 3482.04 140.896C3479.87 142.701 3478.79 145.634 3478.79 149.695V159.983V163.503V227.668H3467.96V148.612C3467.96 145.634 3468.41 142.882 3469.31 140.355C3470.21 137.828 3471.57 135.662 3473.37 133.857C3475.27 132.052 3477.61 130.653 3480.41 129.661C3483.21 128.668 3486.46 128.172 3490.16 128.172ZM3501.39 159.983V169.324H3454.42V159.983H3501.39ZM3526.17 128.848V210.476C3526.17 213.905 3526.8 216.297 3528.06 217.651C3529.33 218.914 3531.36 219.546 3534.15 219.546C3535.96 219.546 3537.45 219.41 3538.62 219.14C3539.79 218.869 3541.37 218.373 3543.36 217.651L3541.6 227.126C3540.16 227.758 3538.58 228.209 3536.86 228.48C3535.15 228.841 3533.39 229.022 3531.58 229.022C3526.08 229.022 3521.97 227.533 3519.26 224.554C3516.65 221.576 3515.34 217.019 3515.34 210.882V128.848H3526.17ZM3585.35 158.63C3591.76 158.63 3597.4 160.028 3602.27 162.826C3607.24 165.624 3611.12 169.685 3613.92 175.009C3616.71 180.244 3618.11 186.516 3618.11 193.826C3618.11 201.136 3616.71 207.453 3613.92 212.777C3611.12 218.012 3607.24 222.028 3602.27 224.825C3597.4 227.623 3591.76 229.022 3585.35 229.022C3579.04 229.022 3573.4 227.623 3568.43 224.825C3563.47 222.028 3559.59 218.012 3556.79 212.777C3553.99 207.453 3552.59 201.136 3552.59 193.826C3552.59 186.516 3553.99 180.244 3556.79 175.009C3559.59 169.685 3563.47 165.624 3568.43 162.826C3573.4 160.028 3579.04 158.63 3585.35 158.63ZM3585.35 167.97C3580.75 167.97 3576.83 169.008 3573.58 171.084C3570.33 173.159 3567.8 176.137 3566 180.018C3564.28 183.808 3563.42 188.411 3563.42 193.826C3563.42 199.15 3564.28 203.753 3566 207.633C3567.8 211.514 3570.33 214.492 3573.58 216.568C3576.83 218.643 3580.75 219.681 3585.35 219.681C3589.96 219.681 3593.88 218.643 3597.13 216.568C3600.38 214.492 3602.86 211.514 3604.58 207.633C3606.38 203.753 3607.28 199.15 3607.28 193.826C3607.28 188.411 3606.38 183.808 3604.58 180.018C3602.86 176.137 3600.38 173.159 3597.13 171.084C3593.88 169.008 3589.96 167.97 3585.35 167.97ZM3663 229.022C3658.67 229.022 3654.56 228.209 3650.68 226.585C3646.89 224.961 3643.78 222.343 3641.34 218.734C3639 215.034 3637.82 210.25 3637.82 204.384V159.983H3648.65V201.542C3648.65 208.4 3650.14 213.138 3653.12 215.755C3656.1 218.282 3660.3 219.546 3665.71 219.546C3668.24 219.546 3670.72 219.14 3673.16 218.327C3675.59 217.425 3677.76 216.071 3679.65 214.266C3681.64 212.371 3683.17 209.98 3684.26 207.092C3685.43 204.204 3686.02 200.775 3686.02 196.804V159.983H3696.84V227.668H3687.37L3686.69 217.38C3684.35 221.441 3681.14 224.419 3677.08 226.314C3673.11 228.119 3668.42 229.022 3663 229.022ZM3722.05 227.668V159.983H3730.85L3732.34 171.084C3734.23 166.932 3736.98 163.819 3740.59 161.743C3744.29 159.668 3748.76 158.63 3754 158.63C3755.17 158.63 3756.43 158.72 3757.79 158.9C3759.23 159.081 3760.45 159.442 3761.44 159.983L3759.55 169.865C3758.55 169.504 3757.47 169.234 3756.3 169.053C3755.12 168.873 3753.45 168.782 3751.29 168.782C3748.49 168.782 3745.65 169.595 3742.76 171.219C3739.96 172.843 3737.62 175.325 3735.72 178.664C3733.83 181.913 3732.88 186.065 3732.88 191.118V227.668H3722.05ZM3782.72 146.988C3780.28 146.988 3778.3 146.266 3776.77 144.822C3775.32 143.288 3774.6 141.302 3774.6 138.866C3774.6 136.429 3775.32 134.489 3776.77 133.045C3778.3 131.511 3780.28 130.744 3782.72 130.744C3785.16 130.744 3787.1 131.511 3788.54 133.045C3790.08 134.489 3790.84 136.429 3790.84 138.866C3790.84 141.302 3790.08 143.288 3788.54 144.822C3787.1 146.266 3785.16 146.988 3782.72 146.988ZM3788.14 159.983V227.668H3777.31V159.983H3788.14ZM3837.63 229.022C3831.04 229.022 3824.95 227.623 3819.36 224.825C3813.85 222.028 3809.61 218.057 3806.63 212.913L3815.84 206.28C3817.82 210.431 3820.71 213.68 3824.5 216.026C3828.38 218.373 3833.03 219.546 3838.44 219.546C3843.23 219.546 3846.97 218.643 3849.68 216.838C3852.39 214.943 3853.74 212.507 3853.74 209.528C3853.74 207.633 3853.11 205.919 3851.84 204.384C3850.67 202.76 3848.37 201.587 3844.94 200.865L3828.7 197.481C3822.11 196.127 3817.37 193.871 3814.48 190.712C3811.69 187.554 3810.29 183.628 3810.29 178.935C3810.29 175.235 3811.32 171.851 3813.4 168.782C3815.57 165.714 3818.59 163.277 3822.47 161.472C3826.44 159.577 3831.09 158.63 3836.41 158.63C3843.09 158.63 3848.73 159.938 3853.33 162.555C3857.94 165.173 3861.37 168.873 3863.62 173.656L3854.55 179.612C3853.02 175.641 3850.54 172.753 3847.11 170.948C3843.68 169.053 3840.11 168.106 3836.41 168.106C3833.16 168.106 3830.37 168.557 3828.02 169.459C3825.76 170.362 3824 171.625 3822.74 173.25C3821.57 174.784 3820.98 176.544 3820.98 178.529C3820.98 180.514 3821.66 182.364 3823.01 184.079C3824.36 185.704 3826.89 186.877 3830.59 187.599L3847.51 191.118C3853.83 192.382 3858.25 194.457 3860.78 197.345C3863.31 200.233 3864.57 203.753 3864.57 207.904C3864.57 212.146 3863.44 215.891 3861.19 219.14C3858.93 222.298 3855.77 224.735 3851.71 226.45C3847.65 228.164 3842.96 229.022 3837.63 229.022ZM3884.65 227.668V128.848H3895.48V170.136C3897.83 166.075 3900.94 163.142 3904.82 161.337C3908.7 159.532 3912.94 158.63 3917.55 158.63C3922.42 158.63 3926.84 159.577 3930.81 161.472C3934.78 163.277 3937.94 166.075 3940.29 169.865C3942.72 173.656 3943.94 178.484 3943.94 184.35V227.668H3933.11V188.14C3933.11 180.65 3931.49 175.461 3928.24 172.573C3925.08 169.595 3921.15 168.106 3916.46 168.106C3913.21 168.106 3909.96 168.873 3906.72 170.407C3903.47 171.941 3900.76 174.468 3898.59 177.987C3896.52 181.417 3895.48 186.019 3895.48 191.795V227.668H3884.65Z" fill="black"/>
<rect x="38.2303" y="38.2147" width="3993.39" height="287.66" stroke="#443535" stroke-width="8.46057"/>
<path d="M2064.54 330.102V431.628" stroke="#443535" stroke-width="8.46057"/>
<circle cx="2064.54" cy="431.627" r="29.612" fill="white" stroke="#443535" stroke-width="8.46057"/>
<circle cx="4035.85" cy="33.9829" r="29.612" fill="white" stroke="#443535" stroke-width="8.46057"/>
<circle cx="34.0005" cy="33.9829" r="29.612" fill="white" stroke="#443535" stroke-width="8.46057"/>
<circle cx="4035.85" cy="330.104" r="29.612" fill="white" stroke="#443535" stroke-width="8.46057"/>
<circle cx="34.0005" cy="330.104" r="29.612" fill="white" stroke="#443535" stroke-width="8.46057"/>
</svg>
