<svg width="16" height="10" viewBox="0 0 16 10" fill="none" xmlns="http://www.w3.org/2000/svg">
<path d="M0 0.500123C0 0.22398 0.223858 0.00012207 0.5 0.00012207H15.5C15.7761 0.00012207 16 0.22398 16 0.500123C16 0.776265 15.7761 1.00012 15.5 1.00012H0.5C0.223858 1.00012 0 0.776265 0 0.500123Z" fill="#1B0F0F"/>
<path d="M3 5.0001C3 4.72396 3.22386 4.5001 3.5 4.5001H15.5C15.7761 4.5001 16 4.72396 16 5.0001C16 5.27624 15.7761 5.5001 15.5 5.5001H3.5C3.22386 5.5001 3 5.27624 3 5.0001Z" fill="#1B0F0F"/>
<path d="M6 9.50008C6 9.22393 6.22386 9.00008 6.5 9.00008H15.5C15.7761 9.00008 16 9.22393 16 9.50008C16 9.77622 15.7761 10.0001 15.5 10.0001H6.5C6.22386 10.0001 6 9.77622 6 9.50008Z" fill="#1B0F0F"/>
</svg>
