<svg width="258" height="36" viewBox="0 0 258 36" fill="none" xmlns="http://www.w3.org/2000/svg">
<path fill-rule="evenodd" clip-rule="evenodd" d="M62.7901 0.229323C57.4081 1.2417 54.1565 4.72878 54.1565 9.34072C54.1565 11.9279 54.9413 13.6152 56.7353 15.415C58.4172 17.1023 60.2112 18.1147 64.8083 19.9144C71.8722 22.7266 73.6662 24.4139 73.6662 27.901C73.6662 30.6007 72.2086 32.6254 69.2934 33.9752C66.6023 35.2126 62.4537 34.8751 59.7627 33.4128C57.1838 31.9505 54.7171 29.1383 53.0352 25.9887C52.5867 25.2013 52.2503 24.6389 52.1382 24.6389C52.0261 24.6389 51.5776 26.1012 51.1291 27.901L50.4563 31.0506L51.0169 31.5005C52.3624 32.6254 55.502 34.3127 57.5202 34.9876C59.4263 35.6625 59.987 35.775 63.0143 35.8875C65.7053 36 66.7145 35.8875 67.9478 35.5501C71.5359 34.6502 74.2269 32.6254 75.5724 29.8132C76.3572 28.3509 76.3572 28.0135 76.3572 25.7637C76.3572 23.6265 76.2451 23.1765 75.6845 21.9392C74.339 19.2395 71.7601 17.5522 65.369 15.19C59.7627 13.1653 57.8566 12.0404 56.8475 10.0156C56.1747 8.6658 56.1747 6.64105 56.8475 5.29121C57.4081 4.05386 58.9778 2.59154 60.5476 1.91662C61.8931 1.35419 65.2568 1.01673 66.8266 1.46667C69.4055 2.14159 71.4237 4.27883 73.5541 8.44083L74.7875 10.9155L75.6845 7.8784L76.5815 4.84127L75.7966 4.16635C74.5632 3.04148 71.7601 1.46667 69.6297 0.791755C67.2751 0.116836 64.8083 -0.220623 62.7901 0.229323ZM209.226 0.229323C206.086 0.904241 203.507 2.929 202.162 5.4037C201.489 6.64105 201.489 7.09099 201.489 9.11575C201.489 11.028 201.601 11.7029 202.05 12.6028C202.834 14.4026 203.731 15.415 205.638 16.6523C207.319 17.7772 207.992 18.1147 213.711 20.4769C217.074 21.9392 219.093 23.1765 219.99 24.6389C223.353 29.8132 217.523 35.8875 210.459 34.5377C206.422 33.7503 203.283 31.1631 200.368 26.1012L199.359 24.3014L199.134 25.2013C199.022 25.7637 198.686 27.1136 198.349 28.2384C198.013 29.3633 197.789 30.4882 197.677 30.7131C197.565 31.0506 198.125 31.5005 199.695 32.5129C203.731 35.2126 207.207 36.1125 211.917 35.8875C216.065 35.6625 218.532 34.6502 220.887 32.2879C223.802 29.3633 224.587 25.4263 222.793 21.8267C221.447 19.127 219.093 17.5522 212.365 15.0775C207.656 13.3902 205.974 12.4903 204.853 11.1405C202.05 7.99088 203.619 3.49143 207.992 1.80413C209.001 1.46667 209.898 1.2417 211.468 1.2417C213.823 1.2417 215.056 1.69165 216.85 3.04148C217.971 3.94137 220.438 7.54094 221.223 9.45321C221.559 10.2406 221.784 10.803 221.896 10.6906C221.896 10.6906 222.344 9.22823 222.905 7.54094L223.802 4.50381L223.129 4.16635C221.784 3.04148 218.644 1.35419 216.85 0.791755C214.72 0.00435008 211.468 -0.220623 209.226 0.229323ZM0.560626 1.2417C1.794 2.81651 2.80313 5.17873 11.1004 26.8886L14.4641 35.775H17.6036H20.7432L19.9583 35.1001C19.5098 34.7626 18.9492 33.8628 18.5007 33.0754C17.94 31.9505 17.8279 31.3881 17.8279 29.9257C17.8279 28.3509 18.1643 27.2261 22.0887 16.2024C24.5554 9.67818 26.5737 3.82889 26.91 3.37894C27.1343 2.929 27.807 2.02911 28.4798 1.46667L29.601 0.454296H25.7888H22.0887L22.9857 1.46667C23.9948 2.59154 24.219 3.60391 24.1069 5.51618C23.9948 6.52856 16.5945 28.3509 16.146 28.9134C16.0339 29.0258 14.1278 24.3014 11.8853 18.4521C8.18514 8.6658 7.73664 7.42845 7.73664 6.07862C7.73664 4.27883 8.40939 2.59154 9.64276 1.2417L10.5398 0.341809H5.26988H0L0.560626 1.2417ZM36.6649 1.2417C37.1134 1.69165 37.5619 2.47905 37.6741 3.04148C38.0104 4.27883 38.0104 31.838 37.6741 33.1878C37.5619 33.7503 37.1134 34.5377 36.6649 34.9876L35.8801 35.775H39.8044H43.7288L42.9439 34.9876C42.4954 34.5377 42.0469 33.7503 41.9348 33.3003C41.7106 32.4004 41.5984 4.39132 41.8227 3.15397C41.9348 2.70402 42.3833 1.91662 42.8318 1.46667L43.7288 0.454296H39.8044H35.8801L36.6649 1.2417ZM84.5424 1.2417C84.9909 1.69165 85.4394 2.36656 85.5515 2.70402C85.6636 3.15397 85.7757 6.97851 85.7757 13.7277C85.7757 25.0888 85.8879 26.5511 87.2334 29.2508C89.1395 33.4128 93.9609 36 99.3429 36C105.173 36 109.322 32.9629 111.116 27.451C111.452 26.3262 111.565 24.7514 111.677 15.415C111.789 5.17872 111.789 4.61629 112.349 3.60391C112.686 2.929 113.246 2.02911 113.807 1.46667L114.704 0.454296H110.78H106.855L107.864 1.57916C109.883 3.49143 109.883 3.7164 109.883 15.8649C109.883 25.5388 109.883 26.6636 109.434 27.901C108.089 31.838 105.061 34.0877 100.352 34.4252C94.97 34.8751 91.382 32.2879 90.1486 27.1136C89.8123 25.8762 89.8122 23.4015 89.8122 14.1776C89.8122 3.04148 89.8122 2.70402 90.2607 1.91662C90.485 1.46667 91.0456 0.904241 91.2699 0.679268C91.7184 0.341809 91.382 0.341809 87.6819 0.341809H83.5332L84.5424 1.2417ZM127.823 1.35419C129.056 2.81651 129.505 3.7164 129.617 5.62867L129.729 7.31597L125.468 19.577C123.113 26.3262 120.983 32.1755 120.759 32.7379C120.535 33.1878 119.862 34.0877 119.189 34.6502L118.068 35.6625H121.768H125.468L124.683 34.8751C123.674 33.8628 123.226 32.2879 123.45 30.8256C123.562 30.2632 124.123 28.3509 124.683 26.6636L125.692 23.6265L131.747 23.514L137.802 23.4015L138.699 25.7637C140.269 29.7008 139.932 32.4004 137.69 34.7626L136.905 35.5501H142.063H147.22L146.66 34.7626C145.538 33.0754 143.857 29.0258 138.811 15.8649C135.896 8.32834 133.317 1.69165 133.205 1.12921L132.868 0.229323H130.065H127.038L127.823 1.35419ZM159.218 0.904241C157.872 1.57916 156.863 2.929 156.863 4.50381C156.863 5.85364 157.76 7.8784 159.778 11.3655L161.012 13.3902L159.554 17.4397C154.957 30.6007 154.172 32.5129 152.714 34.6502L152.042 35.775H164.151H176.261L176.709 33.3003C176.934 31.9505 177.158 30.4882 177.27 30.0382C177.382 29.3633 177.382 29.3633 175.924 30.6007C174.242 32.063 171.888 33.3003 169.757 33.8628C167.627 34.4252 167.403 34.4252 168.3 33.4128C170.094 31.613 170.542 28.8009 169.645 25.9887C169.085 24.1889 167.179 20.5894 164.712 16.4274L162.694 13.1653L164.263 8.77829C166.169 3.49143 166.506 2.70402 167.963 1.35419L169.085 0.341809H164.712C160.787 0.454296 160.115 0.454296 159.218 0.904241ZM183.773 1.2417C184.222 1.69165 184.67 2.25408 184.782 2.59154C185.007 2.929 185.007 7.54094 185.007 18.2271C185.007 33.0754 185.007 33.3003 184.446 34.0877C184.222 34.5377 183.661 35.1001 183.437 35.3251C182.988 35.775 183.1 35.775 187.025 35.775H191.173L190.613 35.3251C189.155 34.2002 189.267 34.5377 189.267 18.1147C189.267 3.26646 189.267 3.04148 189.828 2.14159C190.052 1.69165 190.613 1.12921 190.837 0.904241C191.286 0.454296 191.173 0.454296 187.249 0.454296H183.1L183.773 1.2417ZM232.435 0.566782C232.211 0.791755 232.211 6.30359 232.435 6.30359C232.548 6.30359 233.108 5.85364 233.669 5.4037C235.687 3.7164 240.621 1.46667 242.527 1.46667H243.199V17.4397C243.199 28.1259 243.087 33.6378 242.975 34.0877C242.863 34.4252 242.527 34.9876 242.19 35.3251L241.63 35.8875H245.106H248.581L248.021 35.3251C247.684 34.9876 247.348 34.4252 247.236 34.0877C247.012 33.6378 247.012 28.1259 247.012 17.4397V1.35419H247.684C249.591 1.35419 254.524 3.49143 256.654 5.29121L257.888 6.30359L258 3.7164C258 2.25408 258 0.904241 258 0.791755C257.888 0.566782 255.421 0.454296 245.33 0.454296C238.266 0.454296 232.435 0.454296 232.435 0.566782ZM163.03 2.14159C163.815 2.81651 163.815 2.929 163.703 4.39132C163.591 5.17872 163.142 7.20348 162.694 8.6658C161.684 11.8154 161.797 11.8154 160.003 8.55332C158.321 5.51618 157.984 4.50381 158.433 3.26646C158.993 1.35419 161.46 0.679268 163.03 2.14159ZM134.438 14.4026C135.896 18.1147 137.129 21.3768 137.129 21.4893C137.241 21.7142 136.12 21.8267 131.859 21.8267C128.944 21.8267 126.477 21.7142 126.477 21.6017C126.477 21.1518 131.523 7.20348 131.635 7.31597C131.747 7.54094 132.98 10.6906 134.438 14.4026ZM164.263 18.9021C168.748 26.6636 169.533 29.7008 167.851 32.5129C166.842 34.0877 165.272 34.9876 163.254 34.9876C160.9 34.9876 159.33 33.9752 158.321 31.838C157.312 29.7008 157.76 27.2261 160.339 19.9144C161.124 17.7772 161.797 15.8649 161.797 15.7524C161.909 15.64 161.909 15.415 162.021 15.415C162.133 15.415 163.142 16.8773 164.263 18.9021Z" fill="black"/>
</svg>
