<svg width="24" height="24" viewBox="0 0 24 24" fill="none" xmlns="http://www.w3.org/2000/svg">
<path fill-rule="evenodd" clip-rule="evenodd" d="M18.3561 0.045914C17.4629 0.0849571 17.1611 0.172328 16.6019 0.553578C15.5448 1.27429 15.1024 2.62075 15.5116 3.87171C15.7547 4.61517 16.8268 6.59449 17.9695 8.40989L18.2357 8.83272L17.3987 11.2062C15.2408 17.3257 13.813 21.1426 13.3465 22.0396L13.2461 22.2325L12.96 21.6258C12.4094 20.458 11.8327 18.9953 8.20682 9.56989L4.55339 0.0729273L2.4266 0.0591574L0.299805 0.0453328L0.61078 0.279065C1.37122 0.850729 2.08033 1.73189 2.7076 2.88471C3.33709 4.04155 3.2569 3.84037 7.79365 15.6418C8.43047 17.2983 8.99581 18.8178 9.04994 19.0185C9.12644 19.302 9.14771 19.5601 9.14523 20.1748C9.14238 20.8814 9.12655 21.0172 8.9975 21.4411C8.73543 22.3019 8.27699 23.0183 7.58245 23.6521L7.20135 24H10.7992H14.397L14.4308 23.8549C15.0565 21.1647 16.9804 15.3159 19.8066 7.51222C20.1744 6.49657 20.7007 5.03957 20.976 4.27449C21.5654 2.63679 21.8056 2.06655 22.0829 1.64752C22.388 1.18639 22.9658 0.603966 23.4164 0.303281C23.6367 0.156289 23.8268 0.0265505 23.8389 0.0149431C23.8731 -0.017927 19.2144 0.00840101 18.3561 0.045914ZM19.0616 0.801662C19.6964 1.09227 20.0991 1.64847 20.1359 2.28535C20.1539 2.59796 20.1182 2.81591 19.9145 3.63429C19.6962 4.51139 18.8643 7.11239 18.7019 7.42553C18.6406 7.54387 18.6187 7.51828 18.2503 6.89792C17.7553 6.0643 16.8356 4.2727 16.5936 3.6708C16.3266 3.00638 16.2644 2.66201 16.339 2.26061C16.4845 1.47821 16.993 0.901749 17.7192 0.695665C18.0853 0.591779 18.7111 0.641216 19.0616 0.801662Z" fill="black"/>
</svg>
