<svg width="24" height="24" viewBox="0 0 24 24" fill="none" xmlns="http://www.w3.org/2000/svg">
<g clip-path="url(#clip0_4248_4511)">
<path d="M15.3542 13.9167H14.5971L14.3287 13.6579C15.2679 12.5654 15.8333 11.1471 15.8333 9.60417C15.8333 6.16375 13.0446 3.375 9.60417 3.375C6.16375 3.375 3.375 6.16375 3.375 9.60417C3.375 13.0446 6.16375 15.8333 9.60417 15.8333C11.1471 15.8333 12.5654 15.2679 13.6579 14.3287L13.9167 14.5971V15.3542L18.7083 20.1362L20.1362 18.7083L15.3542 13.9167ZM9.60417 13.9167C7.21792 13.9167 5.29167 11.9904 5.29167 9.60417C5.29167 7.21792 7.21792 5.29167 9.60417 5.29167C11.9904 5.29167 13.9167 7.21792 13.9167 9.60417C13.9167 11.9904 11.9904 13.9167 9.60417 13.9167Z" fill="#FBFBFA"/>
</g>
<defs>
<clipPath id="clip0_4248_4511">
<rect width="23" height="23" fill="white" transform="translate(0.5 0.5)"/>
</clipPath>
</defs>
</svg>
